<?xml version="1.0" encoding="UTF-8"?>
<svg id="Camada_1" xmlns="http://www.w3.org/2000/svg" version="1.1" viewBox="0 0 144 85">
  <!-- Generator: Adobe Illustrator 30.0.0, SVG Export Plug-In . SVG Version: 2.1.1 Build 123)  -->
  <defs>
    <style>
      .st0 {
        fill: #8e4f23;
      }

      .st1 {
        fill: none;
        stroke: #8e4f23;
        stroke-miterlimit: 10;
      }
    </style>
  </defs>
  <path class="st0" d="M31.8.8c.6.6.9,1.3.9,2.1,0,1.7-1,3-2.9,3.9-1.7.8-4,1.2-6.9,1.2s-1.3,0-2.4,0l-6.1,22.8c-.2.8-.3,1.5-.3,1.9,0,.7.3,1.2.8,1.5s1.4.5,2.7.5l-.2.8c-1.7,0-4.3-.1-7.7-.1s-5.7,0-7.3.1l.2-.8c1.2,0,2.1-.2,2.8-.4.6-.2,1.2-.6,1.5-1.2.4-.5.7-1.3,1-2.4L14.1,7.3c-2.1-.2-3.7-.3-5-.3-2.3,0-3.9.2-4.7.7.7.2,1.3.6,1.8,1.2.5.6.7,1.3.7,2.1s-.3,1.8-.9,2.5c-.6.7-1.4,1-2.3,1s-1.6-.3-2.2-.9c-.5-.6-.8-1.4-.8-2.3s.2-1.5.6-2.2c.4-.7,1.1-1.3,2.1-1.8,1.4-.7,3.2-1,5.6-1s4.4.2,7.7.5c3,.3,5.3.4,6.6.4s3.3-.2,4.4-.5c-.4-.4-.8-.9-1-1.4-.3-.6-.4-1.2-.4-1.8,0-1,.3-1.8.9-2.4.6-.6,1.4-1,2.4-1s1.7.3,2.3.9h0Z"/>
  <path class="st0" d="M42,14.5c.6.6.9,1.4.9,2.4s-.4,2.2-1.1,3.1c-.8.8-1.7,1.3-2.8,1.3s-1.4-.2-1.9-.6c-.4-.4-.7-1-.7-1.8s.3-1.8,1-2.6c.7-.8,1.5-1.3,2.4-1.5,0,0-.1,0-.2,0-.1,0-.2,0-.3,0-1.4,0-2.9,1-4.3,3.1-1.5,2-3,5.7-4.5,11l-1.8,7.1h-5.9l5.1-17.9c.1-.4.2-.9.2-1.3s-.2-.8-.7-.8-1,.2-1.4.7c-.4.5-.8,1.3-1.3,2.5l-.8,2.1h-.8l1.1-3.2c1-2.9,2.9-4.3,5.7-4.3s3.2,1.1,3.2,3.4-.1,1.6-.3,2.4l-.3,1.3c1-2.6,2.1-4.5,3.1-5.5,1.1-1.1,2.3-1.6,3.8-1.6s1.9.3,2.5.9h0Z"/>
  <path class="st0" d="M47.9,16.4c0-.6-.2-.8-.7-.8s-1,.3-1.4.8c-.4.5-.8,1.3-1.3,2.5l-.8,2.1h-.8l1.2-3.2c1-2.9,2.9-4.3,5.8-4.3s2.2.3,2.8.9c.6.6.9,1.4.9,2.4s-.2,1.6-.5,2.4l-4.4,12.7c-.2.5-.2.9-.2,1.2,0,.6.3.9.8.9s.8-.2,1.3-.7c.4-.5.9-1.3,1.3-2.6l.7-2h.8l-1.1,3c-1,2.9-2.8,4.3-5.6,4.3s-3.8-1.1-3.8-3.4.2-2,.6-3.2l4.1-11.9c.2-.6.3-1.1.3-1.2h0ZM50.4,4.5c.8-.7,1.8-1,3-1s1.7.2,2.3.7c.5.5.8,1.1.8,1.9s-.4,2-1.2,2.7c-.8.7-1.9,1.1-3.1,1.1s-1.8-.2-2.3-.7c-.5-.5-.8-1.1-.7-2,0-1.1.4-2,1.2-2.7h0Z"/>
  <path class="st0" d="M76.5,12.5c.5.5.7,1.1.7,2s-.2,1.3-.6,1.8c-.4.4-.8.6-1.4.6s-1-.2-1.5-.6c-.4-.4-.6-1-.6-1.8s.1-1.1.4-1.8c-1.1.5-1.9,1.1-2.5,1.9.7.4,1.3.9,1.7,1.5.4.6.6,1.4.6,2.3s-.3,2.3-1,3.5c-.6,1.1-1.6,2.1-2.8,3-1.2.8-2.6,1.4-4.2,1.7-1.6.7-2.7,1.2-3.3,1.7-.7.4-1,.8-1,1.2s.2.5.5.6c.3.2.8.4,1.4.6l3.5,1.2c1.5.5,2.6,1.1,3.5,1.7.8.7,1.3,1.6,1.3,2.8s-.6,2.6-1.7,3.7c-1.1,1.1-2.7,2-4.6,2.7-1.9.7-4,1-6.3,1s-4-.3-5.4-.9c-1.4-.6-2.2-1.3-2.2-2.3s.8-1.8,2.3-2.5c1.6-.7,3.3-1.1,5.3-1.3l.2.6c-1.7.9-2.6,2-2.6,3.3s.3,1.4.9,1.8c.6.4,1.4.6,2.4.6s2.1-.2,3.2-.6c1.1-.4,2.1-.9,2.8-1.6.7-.7,1.1-1.4,1.1-2.2s-.2-.8-.5-1c-.3-.2-.9-.4-1.7-.6l-5.9-1.7c-.7-.2-1.3-.6-1.8-1s-.7-1-.7-1.7c0-1,.6-1.9,1.8-2.8,1.2-.9,3.1-1.8,5.7-2.9h-.4c-1.9,0-3.4-.4-4.5-1.2-1.1-.8-1.7-1.9-1.7-3.5s.4-2.6,1.2-3.9c.8-1.3,2-2.4,3.5-3.3,1.6-.9,3.4-1.3,5.5-1.3s2.2.2,3.2.5c.5-.7,1.1-1.3,1.9-1.7.8-.4,1.5-.6,2.3-.6s1.5.2,2,.7h0ZM66.6,23.2c.7-1.9,1-3.9,1-6.2s0-1.5-.3-1.9c-.2-.5-.5-.7-1.1-.7-.8,0-1.5.5-2.1,1.5-.6,1-1,2.2-1.3,3.6-.3,1.4-.4,2.8-.4,4.1s.1,1.5.3,1.9c.2.4.6.6,1,.6,1.2,0,2.2-.9,2.9-2.8h0Z"/>
  <path class="st0" d="M76.9,22.3c1-2.5,2.6-4.5,4.6-6.2,2-1.7,4.5-2.5,7.3-2.5s3.8.6,5,1.8c1.2,1.2,1.7,2.9,1.7,5.1s-.5,4.6-1.6,7.1c-1,2.5-2.6,4.5-4.6,6.2-2,1.7-4.5,2.5-7.3,2.5s-3.8-.6-5-1.8c-1.2-1.2-1.7-2.9-1.7-5.1s.5-4.6,1.6-7.1ZM85.3,17.4c-1.2,2-2.2,4.4-3.1,7.2-.8,2.9-1.2,5.5-1.2,8s.1,1.7.3,2.2c.2.4.6.7,1.1.7,1,0,2.1-1,3.3-2.9,1.2-1.9,2.2-4.3,3.1-7.1.8-2.8,1.2-5.5,1.2-8.1s-.1-1.8-.3-2.3c-.2-.4-.6-.6-1-.6-1,0-2.1,1-3.4,2.9h0Z"/>
  <path class="st0" d="M25.5,49.6c.5.5.7,1,.7,1.7,0,1.4-.8,2.5-2.3,3.2-1.4.7-3.3,1-5.7,1s-1.1,0-2,0l-5,18.7c-.2.7-.3,1.2-.3,1.6,0,.6.2,1,.6,1.3.4.2,1.2.4,2.2.4v.7c-1.6,0-3.7-.1-6.4-.1s-4.7,0-6,.1v-.7c1.1,0,1.9-.2,2.4-.4.5-.2,1-.5,1.3-1,.3-.4.6-1.1.8-2l5.1-19.2c-1.7-.2-3.1-.2-4.1-.2-1.9,0-3.2.2-3.8.6.6.2,1.1.5,1.5,1,.4.5.6,1.1.6,1.8s-.2,1.5-.7,2c-.5.6-1.1.8-1.9.8s-1.3-.3-1.8-.8c-.4-.5-.7-1.2-.7-1.9s.2-1.2.5-1.8c.4-.6.9-1.1,1.7-1.5,1.1-.5,2.6-.8,4.6-.8s3.6.1,6.3.4c2.5.2,4.3.3,5.4.3s2.7-.1,3.6-.4c-.3-.3-.6-.7-.9-1.2-.2-.5-.3-1-.3-1.5,0-.8.2-1.5.7-2,.5-.5,1.1-.8,2-.8s1.4.2,1.9.7h0Z"/>
  <path class="st0" d="M33.9,60.8c.5.5.7,1.2.7,2s-.3,1.8-.9,2.5c-.6.7-1.4,1-2.3,1s-1.2-.2-1.5-.5c-.4-.4-.5-.9-.5-1.5s.3-1.5.8-2.2c.5-.6,1.2-1.1,2-1.2,0,0-.1,0-.2,0,0,0-.2,0-.2,0-1.2,0-2.3.8-3.5,2.5-1.2,1.7-2.4,4.7-3.7,9l-1.5,5.8h-4.8l4.1-14.7c.1-.4.2-.7.2-1.1s-.2-.6-.5-.6-.8.2-1.2.6c-.3.4-.7,1.1-1.1,2.1l-.6,1.7h-.6l.9-2.6c.8-2.3,2.4-3.5,4.7-3.5s2.6.9,2.6,2.8,0,1.3-.3,2l-.3,1.1c.8-2.2,1.7-3.7,2.6-4.5.9-.9,1.9-1.3,3.1-1.3s1.5.3,2,.8h0Z"/>
  <path class="st0" d="M50.1,72.6h.6l-.9,2.5c-.5,1.3-1.1,2.2-1.9,2.7-.8.5-1.7.8-2.6.8s-2-.4-2.5-1.1c-.3-.4-.5-1-.5-1.7s.1-1.3.3-2c-.8,1.7-1.6,2.9-2.6,3.6-.9.7-2,1.1-3.1,1.1s-2.2-.4-2.8-1.1c-.6-.7-1-1.8-1-3.1,0-2,.5-4.2,1.6-6.4,1.1-2.3,2.4-4.1,4.1-5.7,1.7-1.5,3.3-2.3,4.9-2.3s1.1.2,1.5.5c.4.4.6.9.7,1.6l.5-1.7c1.8,0,3.5-.2,4.9-.5l-4.5,15.2c-.1.4-.2.7-.2,1,0,.5.2.7.6.7.8,0,1.5-.9,2.1-2.7l.6-1.6h0ZM45.5,63.5c0-.1,0-.3,0-.5,0-.6,0-1-.3-1.3-.2-.3-.5-.4-.9-.4-.8,0-1.7.7-2.6,2.1-1,1.4-1.8,3.1-2.5,5.2-.7,2.1-1,4.1-1,6.1s0,1.3.2,1.6c.1.3.4.5.7.5.5,0,1-.3,1.7-1,.6-.7,1.2-1.7,1.8-3,.6-1.3,1.1-2.8,1.6-4.6l-.2.8,1.5-5.3h0Z"/>
  <path class="st0" d="M69.8,72.6h.6l-.8,2.5c-.4,1.3-1,2.2-1.8,2.7-.8.5-1.7.8-2.7.8-1.4,0-2.3-.5-2.7-1.6-.2-.4-.3-.9-.3-1.4s.1-1.5.4-2.4h0c-.9,1.8-1.8,3.2-2.7,4.1-1,.9-2.1,1.3-3.5,1.3s-2.2-.4-2.9-1.2c-.7-.8-1.1-2-1.1-3.6s.5-3.8,1.4-6c1-2.2,2.3-4,4-5.5s3.7-2.3,5.9-2.3,1.8.4,2.1,1.2l1.5-5.8c.1-.4.2-.7.2-1,0-.5-.2-.8-.5-1-.4-.2-.9-.3-1.8-.3l.2-.7c1.6,0,3-.1,4.3-.4,1.3-.2,2.5-.6,3.7-1l-6.7,24.1c-.1.3-.2.6-.2.9,0,.5.2.8.6.8s.7-.2,1-.6c.3-.4.7-1.1,1.1-2.1l.6-1.6h0ZM65.5,62c-.2-.8-.7-1.2-1.4-1.2-1,0-2,.7-3,2.1-1.1,1.4-1.9,3.2-2.7,5.3-.7,2.1-1.1,4.2-1.1,6.3s0,1.4.3,1.8c.2.4.4.6.8.6s1-.3,1.6-1c.6-.7,1.3-1.6,1.9-2.9.7-1.3,1.3-2.8,1.8-4.5l1.7-6.4h0Z"/>
  <path class="st0" d="M76.9,62.4c0-.5-.2-.7-.6-.7s-.8.2-1.1.6c-.3.4-.7,1.1-1.1,2.1l-.7,1.7h-.6l1-2.6c.8-2.3,2.4-3.5,4.7-3.5s1.8.3,2.3.8c.5.5.7,1.2.7,2s-.1,1.3-.4,2l-3.6,10.4c-.1.4-.2.7-.2,1,0,.5.2.7.7.7s.7-.2,1-.6c.4-.4.7-1.1,1.1-2.1l.6-1.6h.6l-.9,2.5c-.8,2.3-2.3,3.5-4.6,3.5s-3.1-.9-3.1-2.8.2-1.6.5-2.6l3.3-9.8c.2-.5.2-.9.2-1h0ZM79,52.6c.7-.5,1.5-.8,2.4-.8s1.4.2,1.9.6c.4.4.7.9.7,1.5s-.3,1.7-1,2.2c-.7.6-1.5.9-2.5.9s-1.4-.2-1.9-.6c-.4-.4-.6-.9-.6-1.6,0-.9.4-1.7,1-2.2Z"/>
  <path class="st0" d="M87.6,80.4c.7-.2,1.3-.3,1.8-.3s1.1.1,1.5.4c.4.2.6.6.6,1.1,0,1-.6,1.7-1.7,2.2-1.1.5-2.4.7-3.9.7s-1.2,0-1.8-.2c-.5-.1-1-.3-1.3-.5l.2-.5s.3,0,.6.2c.4.1.9.2,1.4.2s1.2-.1,1.8-.3.9-.6.9-1.2,0-.4-.3-.6c-.2-.1-.4-.2-.7-.2s-.7,0-1.1.2l2.3-3.5h1l-1.5,2.3ZM91.9,62.5c-1.1,1.2-1.9,2.8-2.6,4.8-.7,2-1,4-1,6s.9,3.4,2.6,3.4,3.1-1,4.5-3l.7.3c-.8,1.3-1.9,2.4-3.1,3.3-1.3.9-2.7,1.3-4.3,1.3s-3-.4-4-1.3c-1-.9-1.5-2.2-1.5-3.9s.5-4,1.5-6c1-2.1,2.3-3.8,4.1-5.2,1.8-1.4,3.8-2.1,6-2.1s2.2.3,3,.9c.8.6,1.1,1.4,1.1,2.3s-.1,1.2-.4,1.8c-.3.6-.7,1.1-1.2,1.4-.5.4-1.1.5-1.7.5s-1-.2-1.4-.5c-.4-.4-.5-.8-.5-1.4,0-.9.3-1.7.9-2.4.6-.7,1.3-1.1,2.2-1.3-.4-.5-.9-.7-1.6-.7-1.1,0-2.2.6-3.2,1.8h0Z"/>
  <path class="st0" d="M115.5,72.6h.6l-.9,2.5c-.5,1.3-1.1,2.2-1.9,2.7-.8.5-1.7.8-2.6.8s-2-.4-2.5-1.1c-.3-.4-.5-1-.5-1.7s.1-1.3.3-2c-.8,1.7-1.6,2.9-2.6,3.6-.9.7-2,1.1-3.1,1.1s-2.2-.4-2.8-1.1c-.6-.7-1-1.8-1-3.1,0-2,.5-4.2,1.6-6.4,1.1-2.3,2.4-4.1,4.1-5.7,1.7-1.5,3.3-2.3,4.9-2.3s1.1.2,1.5.5c.4.4.6.9.7,1.6l.5-1.7c1.8,0,3.5-.2,4.9-.5l-4.5,15.2c-.1.4-.2.7-.2,1,0,.5.2.7.6.7.8,0,1.5-.9,2.1-2.7l.6-1.6h0ZM111,63.5c0-.1,0-.3,0-.5,0-.6,0-1-.3-1.3-.2-.3-.5-.4-.9-.4-.8,0-1.7.7-2.6,2.1-1,1.4-1.8,3.1-2.5,5.2-.7,2.1-1,4.1-1,6.1s0,1.3.2,1.6c.1.3.4.5.7.5.5,0,1-.3,1.7-1,.6-.7,1.2-1.7,1.8-3,.6-1.3,1.1-2.8,1.6-4.6l-.2.8,1.5-5.3h0ZM112.1,51.7c.4.2.9.6,1.4,1,.4.4.8.6,1.1.8.3.2.7.3,1.1.3s.9-.2,1.3-.5c.4-.3.8-.8,1.2-1.5l.6.2c-.6,1.6-1.3,2.8-2.3,3.6-.9.8-1.9,1.2-3,1.2s-1.2-.1-1.6-.4c-.4-.2-.9-.6-1.4-1-.4-.4-.8-.6-1.1-.8-.3-.2-.7-.3-1.1-.3-.9,0-1.7.7-2.4,2l-.6-.2c.6-1.6,1.4-2.8,2.3-3.6.9-.8,1.9-1.2,2.9-1.2s1.2.1,1.6.4h0Z"/>
  <path class="st0" d="M119.4,67.1c.9-2,2.1-3.7,3.8-5.1,1.7-1.4,3.7-2,6-2s3.1.5,4.1,1.4c1,1,1.4,2.4,1.4,4.2s-.4,3.8-1.3,5.8c-.9,2-2.1,3.7-3.8,5.1-1.7,1.4-3.7,2-6,2s-3.1-.5-4.1-1.4c-1-1-1.4-2.4-1.4-4.2s.4-3.8,1.3-5.8ZM126.2,63.1c-1,1.6-1.8,3.6-2.5,5.9-.7,2.3-1,4.5-1,6.5s0,1.4.3,1.8c.2.4.5.5.9.5.8,0,1.8-.8,2.7-2.3,1-1.6,1.8-3.5,2.5-5.8.7-2.3,1-4.5,1-6.6s0-1.5-.3-1.9c-.2-.4-.5-.5-.9-.5-.8,0-1.8.8-2.8,2.4Z"/>
  <path class="st0" d="M42.6,43c.3.3.5.7.5,1.4s-.2,1.2-.6,1.7c-.4.4-1.1.8-2,1.1-.4.2-.7.3-.8.3.4.4.6.9.6,1.6s-.2,1.2-.6,1.7c-.4.5-.9,1-1.7,1.3-.7.3-1.6.5-2.7.5s-2.3-.3-3.1-.8c-.8-.5-1.2-1.3-1.2-2.2s.3-1.6,1-2.3,1.6-1.1,2.7-1.3c-.4-.1-.7-.3-.9-.6-.2-.2-.3-.5-.3-.8s.1-.7.4-.9c.3-.3.6-.5,1-.6.4-.1.8-.2,1.3-.2s1,0,1.3.3c.3.2.4.5.4.8s-.1.5-.3.7c-.2.2-.5.3-.7.3v-.2c.2,0,.4,0,.5-.2.1-.1.2-.3.2-.5s0-.4-.3-.5c-.2-.1-.4-.2-.7-.2s-.6,0-.9.2c-.3.2-.5.4-.7.7-.2.3-.3.6-.3,1s0,.5.2.7c.3,0,.6,0,.9,0s.5,0,.5.3,0,.2-.1.2c0,0-.2,0-.3,0-.2,0-.5,0-.9-.3-.5.2-.9.5-1.2,1.1-.3.5-.5,1.1-.5,1.8s.3,1.4.8,1.9c.5.4,1.3.6,2.3.6s1.2,0,1.8-.3c.6-.2,1-.5,1.3-.9.3-.4.5-.8.5-1.4s-.2-1-.5-1.4l-1.6.5c-.3,0-.6.2-.9.3-.4.1-.7.3-.9.5-.2.2-.3.4-.3.7s0,.4.3.6c.2.1.4.2.7.2s.7,0,.9-.3c.2-.2.4-.4.5-.6h.2c-.1.4-.3.6-.6.8-.3.2-.6.3-1.1.3s-.8-.1-1.2-.4c-.3-.2-.5-.6-.5-1.2,0-1.1.8-1.9,2.4-2.4l1-.3c1.3-.4,2.1-.7,2.6-.9.5-.2.9-.4,1.2-.6.3-.2.4-.5.4-.9s-.1-.6-.4-.8c-.3-.2-.6-.3-1-.3s-.3,0-.4,0c.4.2.6.4.6.8s-.1.5-.4.7c-.2.2-.5.3-.9.3s-.5,0-.7-.2c-.2-.2-.3-.4-.3-.6s0-.5.2-.6c.2-.2.4-.3.6-.4.3-.1.7-.2,1.1-.2s1,.1,1.3.4h0Z"/>
  <path class="st0" d="M89.6,43.5c-.3.4-.2,1,.1,1.4,0,.1.2.2.3.3,0,0,.2,0,.2,0,0,0,0-.2,0-.2,0,0,0,0,0,0,0,0,0,0,0,0,0,0,0,0,0,0,0,0,0,0,0,0,0,0,0,0-.1-.1,0,0,0,0,0,0,0,0,0,0,0,0,0,0,0,0,0,0,0,0,0,0,0,0,0,0,0,0,0,0,0,0,0,0,0,0,0,0,0,0,0,0,0,0,0,0,0,0,0,0,0,0,0,0,0,0,0,0,0,0,0,0,0,0,0,0,0,0,0,0,0,0h0c0,0,0,0,0,0,0,0,0,0,0,0h0c0-.1,0-.1,0-.2,0,0,0,0,0,0,0,0,0,0,0,0,0,0,0,0,0,0,0,0,0-.1,0-.2,0,0,0,0,0,0,0,0,0,0,0,0,0,0,0,0,0,0,0,0,0,0,0,0,0,0,0,0,0,0,0,0,0-.2,0-.2,0,0-.2,0-.2,0h0Z"/>
  <path class="st0" d="M93,38.8c-.3.3-.4.8-.2,1.1,0,0,.1.2.2.3,0,0,0,0,0,0s0,0,0,0c0,0,0-.1,0-.2,0,0,0,0,0,0,0,0,0,0,0,0,0,0,0,0,0,0,0,0,0,0,0,0,0,0,0,0,0,0,0,0,0,0,0,0,0,0,0,0,0,0,0,0,0,0,0,0,0,0,0,0,0,0,0,0,0,0,0-.1,0,0,0,0,0,0,0,0,0,0,0,0h0s0,0,0,0c0,0,0,0,0-.1,0,0,0,0,0,0s0,0,0,0c0,0,0,0,0,0,0,0,0,0,0,0,0,0,0,0,0,0,0,0,0,0,0,0,0,0,0,0,0,0,0,0,0,0,0,0,0,0,0,0,0,0,0,0,0,0,0,0,0,0,0,0,0,0,0,0,0,0,0,0,0,0,0,0,0,0,0,0,0-.2,0-.2,0,0-.1,0-.2,0h0Z"/>
  <path class="st0" d="M105.1,22.5v8.4c0,1.1.4,2.1,1.3,2.7.5.4,1.5.8,2,1.1,2.1,1.1,6.4,3.2,8.6,4.3l1.1.5c.5.2,1.1,0,1.2-.5,0-.1,0-.3,0-.5v-.6c0-2.4-.1-7.2-.2-9.6,0-.6.2-1.2.4-1.8.1-.4.3-.6.4-1,0-.5,0-1.1-.2-1.7,0,.2,0,0,0,.1,0,0,0-.2-.1-.2-1.8-3.7-5.6-6.4-9.7-6.9-1.4-.2-2.8,0-4.2.3h.2c0,0-.3.2-.3.2-1.6,1.2-1.9,3.5-.6,5,0,0,0,0,0,0,0,.1,0-.2,0,.2h0ZM104.3,22.5c.2.5,0,.1,0,.2h0s0,0,0,0h0c-1.7-2-1.2-5,1-6.4h0c.4,0,.8-.1,1.2-.2,5.7-.3,10.9,2.3,13.7,7.3.1.5.3,1.3.3,2,0,.4-.3.9-.4,1.2-.2.5-.2,1.1-.3,1.6,0-.3.1,4.8.2,4.7v4.8c.1.4.2,1,0,1.3-.3,1.1-1.6,1.7-2.6,1.2l-1.1-.5-4.3-2.1-4.3-2.1-1.1-.5c-1.7-.7-2.8-2.2-2.7-4.1,0-2.2.1-6.2.2-8.4h0Z"/>
  <path class="st1" d="M104.6,16.6l4.3-2.7c5.2-3.2,11.2-5.1,17.3-5.3h3.6c3.9-.2,7.7,1.2,10.6,3.9l.6.7c1.2,1.4,1.4,3.3.6,4.9l-2.2,1.4c-4.3,2.6-8.9,4.8-13.7,6.3l-6.9,2.2"/>
  <path class="st0" d="M142.7,17.6c0,3.3.3,6.8.3,10.2l-.3.2c-7.3,4.5-15,8.4-22.9,11.8,0,0-.5.2-.5.2v-11.7s0-.3,0-.3c8-1,15.5-4.5,21.9-9.4.5-.3,1-.9,1.6-1h0ZM142.5,18.2c0,.1,0,.2,0,.3,0,0,0,0-.2.2l-.6.5c-3,2.2-6.3,4.1-9.7,5.6-3.9,1.8-8,2.9-12.2,3.9,0,0,.3-.4.3-.4v11.1s-.5-.3-.5-.3c7.8-3.5,15.3-7.6,22.5-12.3l-.3.6c.2-3.1.5-6,.7-9.1h0Z"/>
  <path class="st0" d="M88.2,44.2c-.4,1.6.2,3.3,1.2,4.6,1.1,1.4,2.7,2.2,4.3,2.9,1.7.8,3.6,1.4,5.5,1.1,1.9-.3,3.7-1.4,5.4-2.2,2.1-1,4.2-1.9,6.3-2.9.4-.2,0-.8-.3-.6-1.7.8-3.4,1.6-5.1,2.4-1.7.8-3.3,1.7-5,2.3-1.7.6-3.5.4-5.2-.2-1.5-.6-3.2-1.3-4.5-2.4-1.4-1.2-2.2-3-1.8-4.8,0-.4-.6-.6-.7-.2h0Z"/>
  <path class="st0" d="M91.7,41.3c-.8.3-1.5.6-2.3.9-.6.3-1.1.7-1.2,1.3-.3,1.4.9,2.8,1.8,3.7,1,.9,2.2,1.6,3.5,2.2,1.5.7,3.2,1.2,4.8,1.3,1.7,0,3.3-.5,4.6-1.6.3-.3-.2-.8-.5-.5-2.2,2-5.3,1.5-7.8.6-1.1-.4-2.3-.9-3.2-1.7-1-.7-2-1.7-2.4-2.8-.3-.8-.1-1.4.6-1.8.7-.4,1.5-.6,2.3-.9.4-.2.2-.8-.2-.7h0Z"/>
  <path class="st0" d="M91.6,39.6c-.6,1.7,0,3.6,1.2,5,.6.7,1.4,1.3,2.2,1.9.8.5,1.7,1.1,2.5,1.6s1.8.9,2.8,1c1,.1,1.9,0,2.8-.2.9-.2,1.8-.6,2.8-.9,1-.3,2-.4,3.1-.3,1,.1,2.1.2,3-.5.7-.6,1.1-1.5.9-2.4,0-.4-.7-.2-.7.2.2.9-.3,1.7-1.1,2-.8.3-1.8,0-2.6,0-1.7-.1-3.3.5-4.9,1-.8.2-1.7.4-2.6.4s-1.8-.3-2.6-.7-1.6-.9-2.3-1.4-1.4-.9-2-1.5c-1.4-1.3-2.3-3.2-1.7-5.1.1-.4-.5-.6-.7-.2h0Z"/>
  <path class="st0" d="M95.5,37.4c-.9.3-1.9,0-2.8.4-.6.3-1.1.9-1.2,1.6,0,.9.4,1.7,1.1,2.3.7.7,1.5,1.3,2.2,2,1.5,1.2,3.1,2.4,5,2.9.9.3,1.9.4,2.8.3,1,0,1.9-.4,2.9-.7,1.1-.4,2.2-.6,3.4-.6,1.2,0,2.3,0,3.5,0,.4,0,.4-.7,0-.7-1.8,0-3.7-.2-5.4,0-1.8.3-3.4,1.3-5.2,1.2-1.8,0-3.5-.9-5-2-.7-.5-1.4-1.1-2.1-1.7-.7-.6-1.4-1.1-1.9-1.8-.6-.7-.8-1.8.1-2.4.8-.5,1.9-.2,2.8-.5.4-.1.2-.8-.2-.7h0Z"/>
  <path class="st0" d="M96.1,35.1c-1.1,1.4-1.1,3.5,0,5,.5.7,1.3,1.3,2,1.8.8.7,1.7,1.3,2.7,1.8.9.5,1.8.9,2.8,1.1,1,.2,1.9,0,2.8,0,.5,0,1-.1,1.4,0,.2,0,.4,0,.6,0,1,0,2,0,3,.3.9.2,2.1.5,2.8,0,.8-.6.7-1.8.5-2.7,0-.4-.7-.2-.7.2,0,.7.3,2-.7,2.2-.4,0-.7,0-1.1,0-.5,0-.9-.2-1.4-.3-.8-.1-1.7-.2-2.5-.2-.5,0-1,0-1.5,0-.8,0-1.7.3-2.5.3-.9,0-1.8-.3-2.6-.7-1.6-.7-3.1-1.8-4.4-3-.7-.6-1.3-1.4-1.4-2.3-.2-.9,0-1.9.6-2.7.3-.3-.2-.8-.5-.5h0Z"/>
  <path class="st0" d="M102.1,35.7c.4-.4,1,0,1.4.1.5.3,1.1.5,1.6.8,1.1.6,2.2,1.1,3.3,1.7,2.2,1.2,4.3,2.4,6.4,3.7v-.5c-.3.3-.7.3-1.1.3s-.9,0-1.4,0c-1,0-1.9-.1-2.9-.1-1.8,0-3.6.1-5.3-.3-3-.7-5.6-2.8-7.1-5.4-.1-.2-.3-.4-.3-.6,0-.3.2-.3.5-.3.5,0,1,0,1.5,0,1.1,0,2.1.3,3.1.7.4.2.6-.5.2-.7-1-.4-2-.6-3.1-.7-.5,0-1,0-1.6,0-.4,0-.7,0-1,.3-.7.7,0,1.7.5,2.2.5.8,1.1,1.5,1.8,2.1,1.2,1.2,2.7,2.2,4.4,2.7.9.3,1.8.5,2.8.6,1,0,2.1,0,3.1,0,1.3,0,2.5.1,3.8.2.9,0,2.1.2,2.7-.6.1-.2,0-.4-.1-.5-2.3-1.4-4.7-2.8-7.1-4.1-1.2-.6-2.4-1.3-3.6-1.9-.8-.4-2-1.1-2.8-.3-.3.3.2.8.5.5Z"/>
  <path class="st0" d="M116,21.5c1,1.3,1.8,2.8,2.2,4.5,0,.2.3,0,.3,0-.3-1.3-.9-2.5-1.6-3.6-.2-.3-.4-.6-.7-.9-.1-.1-.3,0-.2.2h0Z"/>
  <path class="st0" d="M115.9,23c.2.5.5,1,.7,1.5,0,0,.1,0,.2,0,0,0,0-.1,0-.2-.2-.5-.5-1-.7-1.5,0,0-.1,0-.2,0,0,0,0,.1,0,.2Z"/>
  <path class="st0" d="M105.8,31.5c0,.6.3,1.2.7,1.6.1.1.3.2.4.3,0,0,.2,0,.2,0,0,0,0-.2,0-.2,0,0-.1,0-.2-.1,0,0,0,0,0,0,0,0,0,0,0,0,0,0,0,0,0,0,0,0,0,0,0,0,0,0,0,0,0,0-.1,0-.2-.2-.3-.3,0,0,0,0,0,0,0,0,0,0,0,0,0,0,0,0,0,0,0,0,0,0,0,0,0,0,0-.1,0-.2,0,0,0,0,0,0,0,0,0,0,0,0,0,0,0,0,0,0,0,0,0,0,0,0,0,0,0-.1,0-.2,0,0,0,0,0-.1,0,0,0,0,0,0,0,0,0,0,0,0,0,0,0,0,0,0,0,0,0-.2,0-.2s0-.1-.1-.1c0,0-.1,0-.1.1h0Z"/>
  <path class="st0" d="M122.7,34.7c0,0,0,.2,0,.2,0,0,0,0,.1.1s.1,0,.2,0,0,0,0,0c0,0,0,0,0,0,0,0,0,0,0,0,0,0,0,0,0,0,0,0,0,0,0-.1,0,0,0,0,0,0,0,0,0,0,0,0,0,0,0,0,0,0s0,0,0,0c0,0,0,0,0,0,0,0,0,0,0,0,0,0,0-.1-.2-.1,0,0-.1,0-.2,0,0,0,0,0,0,0,0,0,0,0,0,.1,0,0,0,0,0,0h0s0,0,0,0c0,0,0,0,0,0h0,0,0s0,0,0,0h0s0,0,0,0h0s0,0,0,0h0s0,0,0,0h0s0,0,0,0h0s0,0,0,0h0s0,0,0,0h0s0,0,0,0h0s0,0,0,0h0s0,0,0,0h0s0,0,0,0h0s0,0,0,0h0s0,0,0,0h0s0,0,0,0h0s0,0,0,0h0s0,0,0,0h0s0,0,0,0h0s0,0,0,0h0s0,0,0,0h0s0,0,0,0h0s0,0,0,0c0,0,0,0,0,0s0,0,0,0c0,0,0,0,0,0s0,0,0,0h0Z"/>
  <path class="st0" d="M102,36.9c0,0,0,.2,0,.2,0,0,0,0,.1.1,0,0,.1,0,.2,0s0,0,0,0c0,0,0,0,0,0,0,0,0,0,0,0,0,0,0,0,0,0,0,0,0,0,0-.1,0,0,0,0,0,0,0,0,0,0,0,0,0,0,0,0,0,0s0,0,0,0c0,0,0,0,0,0,0,0,0,0,0,0,0,0,0-.1-.2-.1,0,0-.1,0-.2,0,0,0,0,0,0,0,0,0,0,0,0,.1,0,0,0,0,0,0h0s0,0,0,0c0,0,0,0,0,0h0,0,0s0,0,0,0h0s0,0,0,0h0s0,0,0,0h0s0,0,0,0h0s0,0,0,0h0s0,0,0,0h0s0,0,0,0h0s0,0,0,0h0s0,0,0,0h0s0,0,0,0h0s0,0,0,0h0s0,0,0,0h0s0,0,0,0h0s0,0,0,0h0s0,0,0,0h0s0,0,0,0h0s0,0,0,0h0s0,0,0,0h0s0,0,0,0h0s0,0,0,0h0s0,0,0,0c0,0,0,0,0,0s0,0,0,0c0,0,0,0,0,0s0,0,0,0h0Z"/>
  <path class="st0" d="M131.1,27s0,0,0,0c0,0,0,0,0,0,0,0,0,0,.1,0,0,0,0,0,0,0,0,0,0,0,0,0h0s0,0,0,0c0,0,0,0,.1,0,0,0,0,0,0,0,0,0,0,0,0,0,0,0,0,0,0,0,0,0,0,0,0,0,0,0,0,0,0,0h0s0,0,0,0c0,0,0,0,0,0h0s0,0,0,0h0s0,0,0,0h0s0,0,0,0h0s0,0,0,0h0s0,0,0,0h0s0,0,0,0c0,0,0,0,0,0,0,0,0,0,0,0,0,0,0,0,0,0,0,0,0,0,0,0,0,0,0,0,0,0,0,0,0,0,0,.1h0Z"/>
  <path class="st0" d="M94,47.6s0,0,0,0,0,0,0,0c0,0,0,0,.1,0,0,0,0,0,0,0,0,0,0,0,0,0h0s0,0,0,0c0,0,0,0,.1,0,0,0,0,0,0,0,0,0,0,0,0,0,0,0,0,0,0,0,0,0,0,0,0,0,0,0,0,0,0,0h0s0,0,0,0c0,0,0,0,0,0h0s0,0,0,0h0s0,0,0,0h0s0,0,0,0h0s0,0,0,0h0s0,0,0,0h0s0,0,0,0c0,0,0,0,0,0,0,0,0,0,0,0,0,0,0,0,0,0,0,0,0,0,0,0,0,0,0,0,0,0,0,0,0,0,0,.1h0Z"/>
  <path class="st0" d="M140.1,22.2s0,0,0,0,0,0,0,0c0,0,0,0,.1,0,0,0,0,0,0,0,0,0,0,0,0,0h0s0,0,0,0c0,0,0,0,.1,0,0,0,0,0,0,0,0,0,0,0,0,0,0,0,0,0,0,0,0,0,0,0,0,0,0,0,0,0,0,0h0s0,0,0,0c0,0,0,0,0,0h0s0,0,0,0h0s0,0,0,0h0s0,0,0,0h0s0,0,0,0h0s0,0,0,0h0s0,0,0,0c0,0,0,0,0,0,0,0,0,0,0,0,0,0,0,0,0,0,0,0,0,0,0,0,0,0,0,0,0,0,0,0,0,0,0,.1h0Z"/>
  <path class="st0" d="M126.7,33.8c0,.1.2.2.3.3,0,0,.1,0,.2,0,0,0,.1,0,.2-.1,0,0,0,0,0,0,0,0,0,0,0,0h0s0,0,0,0h0s0,0,0,0h0s0,0,0,0h0s0,0,0,0h0s0,0,0,0h0s0,0,0,0h0s0,0,0,0c0,0,.1,0,.2,0,0,0,0-.1,0-.2,0,0,0,0-.1-.1,0,0-.1,0-.2,0,0,0-.1,0-.2.1,0,0,0,0,0,.1h0s0,0,0,0h0s0,0,0,0h0s0,0,0,0h0s0,0,0,0h0s0,0,0,0h0s0,0,0,0h0s0,0,0,0h0s0,0,0,0h0s0,0,0,0c0,0,0,0,0,0,0,0,0,0-.1,0,0,0-.1,0,0,.2h0Z"/>
  <path class="st0" d="M103.1,40c0,.1.2.2.3.3,0,0,.1,0,.2,0,0,0,.1,0,.2-.1,0,0,0,0,0,0,0,0,0,0,0,0h0s0,0,0,0h0s0,0,0,0h0s0,0,0,0h0s0,0,0,0h0s0,0,0,0h0s0,0,0,0h0s0,0,0,0c0,0,.1,0,.2,0,0,0,0-.1,0-.2,0,0,0,0-.1-.1,0,0-.1,0-.2,0,0,0-.1,0-.2.1,0,0,0,0,0,.1h0s0,0,0,0h0s0,0,0,0h0s0,0,0,0h0s0,0,0,0h0s0,0,0,0h0s0,0,0,0h0s0,0,0,0h0s0,0,0,0h0s0,0,0,0c0,0,0,0,0,0,0,0,0,0-.1,0,0,0-.1,0,0,.2h0Z"/>
  <path class="st0" d="M95,41c0,.1.2.2.3.3,0,0,.1,0,.2,0,0,0,.1,0,.2-.1,0,0,0,0,0,0,0,0,0,0,0,0h0s0,0,0,0h0s0,0,0,0h0s0,0,0,0h0s0,0,0,0h0s0,0,0,0h0s0,0,0,0h0s0,0,0,0c0,0,.1,0,.2,0,0,0,0-.1,0-.2,0,0,0,0-.1-.1,0,0-.1,0-.2,0,0,0-.1,0-.2.1,0,0,0,0,0,.1h0s0,0,0,0h0s0,0,0,0h0s0,0,0,0h0s0,0,0,0h0s0,0,0,0h0s0,0,0,0h0s0,0,0,0h0s0,0,0,0h0s0,0,0,0c0,0,0,0,0,0,0,0,0,0-.1,0,0,0-.1,0,0,.2h0Z"/>
  <path class="st0" d="M125.3,29.5s0,0,0,0c0,0,0,0,0,0,0,0,0,0,0,0,0,0,0,0,0,0,0,0,0,0,0,0,0,0,0,0,0,0,0,0,0,0,0,0,0,0,0,0,0,0,0,0,0,0,0,0,0,0,0,0,0,0,0,0,0,0,0,0,0,0,0,0,.1,0,0,0,0,0,0,0,0,0,0,0,0,0,0,0,0,0,0,0,0,0,0,0,0,0,0,0,0,0,0,0s0,0,0,0c0,0,0,0,0,0,0,0,0,0,0,0,0,0,0,0,0,0,0,0,0,0,0,0,0,0,0,0-.1,0,0,0,0,0,0,0,0,0,0,0,0,0,0,0,0,0,0,0s0,0,0,0c0,0,0,0,0,0h0,0,0,0s0,0,0,0h0s0,0,0,0h0s0,0,0,0h0s0,0,0,0h0s0,0,0,0h0s0,0,0,0h0s0,0,0,0h0s0,0,0,0h0s0,0,0,0h0s0,0,0,0h0s0,0,0,0h0s0,0,0,0h0s0,0,0,0h0s0,0,0,0h0s0,0,0,0h0s0,0,0,0h0s0,0,0,0h0s0,0,0,0h0s0,0,0,0h0s0,0,0,0c0,0,0,0,0,0s0,0,0,0c0,0,0,0,0,0s0,0,0,0h0Z"/>
  <path class="st0" d="M108.8,39.8s0,0,0,0c0,0,0,0,0,0,0,0,0,0,0,0,0,0,0,0,0,0,0,0,0,0,0,0,0,0,0,0,0,0,0,0,0,0,0,0,0,0,0,0,0,0,0,0,0,0,0,0,0,0,0,0,.1,0,0,0,0,0,0,0,0,0,0,0,.1,0,0,0,0,0,0,0,0,0,0,0,0,0,0,0,0,0,0,0,0,0,0,0,0,0,0,0,0,0,0,0s0,0,0,0c0,0,0,0,0,0,0,0,0,0,0,0,0,0,0,0,0,0,0,0,0,0,0,0,0,0,0,0-.1,0,0,0,0,0,0,0,0,0,0,0,0,0,0,0,0,0,0,0s0,0,0,0c0,0,0,0,0,0h0,0,0,0s0,0,0,0h0s0,0,0,0h0s0,0,0,0h0s0,0,0,0h0s0,0,0,0h0s0,0,0,0h0s0,0,0,0h0s0,0,0,0h0s0,0,0,0h0s0,0,0,0h0s0,0,0,0h0s0,0,0,0h0s0,0,0,0h0s0,0,0,0h0s0,0,0,0h0s0,0,0,0h0s0,0,0,0h0s0,0,0,0h0s0,0,0,0h0s0,0,0,0c0,0,0,0,0,0s0,0,0,0c0,0,0,0,0,0s0,0,0,0h0Z"/>
  <path class="st0" d="M98.9,44.1s0,0,0,0c0,0,0,0,0,0,0,0,0,0,0,0,0,0,0,0,0,0,0,0,0,0,0,0,0,0,0,0,0,0s0,0,0,0c0,0,0,0,0,0,0,0,0,0,0,0,0,0,0,0,0,0,0,0,0,0,0,0,0,0,0,0,.1,0,0,0,0,0,0,0,0,0,0,0,0,0,0,0,0,0,0,0,0,0,0,0,0,0,0,0,0,0,0,0s0,0,0,0c0,0,0,0,0,0,0,0,0,0,0,0,0,0,0,0,0,0,0,0,0,0,0,0,0,0,0,0-.1,0,0,0,0,0,0,0,0,0,0,0,0,0,0,0,0,0,0,0s0,0,0,0c0,0,0,0,0,0h0,0,0,0s0,0,0,0h0s0,0,0,0h0s0,0,0,0h0s0,0,0,0h0s0,0,0,0h0s0,0,0,0h0s0,0,0,0h0s0,0,0,0h0s0,0,0,0h0s0,0,0,0h0s0,0,0,0h0s0,0,0,0h0s0,0,0,0h0s0,0,0,0h0s0,0,0,0h0s0,0,0,0h0s0,0,0,0h0s0,0,0,0h0s0,0,0,0h0s0,0,0,0c0,0,0,0,0,0s0,0,0,0c0,0,0,0,0,0s0,0,0,0h0Z"/>
  <path class="st0" d="M132.5,30.6h0s0,0,0,0h0s0,0,0,0h0s0,0,0,0c0,0,0,0,0,0,0,0,0,0,0,0,0,0,0,0,0,0,0,0,0,0,0,0,0,0,0,0,0,0,0,0,0,0,0,0,0,0,0,0,0,0,0,0,0,0,0,0,0,0,0,0,0,0,0,0,0,0,0,0,0,0,0,0,0,0h0s0,0,0,0h0s0,0,0,0h0s0,0,0,0c0,0,0,0,0,0,0,0,0,0,0,0,0,0,0,0,0,0h0s0,0,0,0h0s0,0,0,0h0s0,0,0,0h0s0,0,0,0h0s0,0,0,0c0,0,0,0,0,0h0s0,0,0,0h0s0,0,0,0c0,0,0,0,0,0,0,0,0,0,0,0,0,0,0,0,0,0,0,0,0,0,0,0,0,0,0,0,0,0,0,0,0,0,0,0,0,0,0,0,0,0h0s0,0,0,0h0s0,0,0,0h0s0,0,0,0h0s0,0,0,0h0s0,0,0,0h0s0,0,0,0c0,0,0,0,0,0h0s0,0,0,0h0s0,0,0,0c0,0,0,0,0,0,0,0,0,0,0,0h0s0,0,0,0h0s0,0,0,0,0,0,0,0c0,0,0,0,0,0,0,0,0,0,0,0h0s0,0,0,0h0s0,0,0,0h0s0,0,0,0h0s0,0,0,0h0s0,0,0,0h0s0,0,0,0h0s0,0,0,0h0s0,0,0,0h0s0,0,0,0h0s0,0,0,0h0s0,0,0,0h0s0,0,0,0h0s0,0,0,0h0s0,0,0,0h0s0,0,0,0h0s0,0,0,0h0s0,0,0,0c0,0,0,0,0,0,0,0,0,0,0,0,0,0,0,0,0,0,0,0,0,0,0,0h0c0,0,0,0,0-.1h0s0,0,0,0h0Z"/>
  <path class="st0" d="M129.4,29.5s0,0,0,.1c0,0,0,0,0,.1,0,0,0,0,.1.1,0,0,.2,0,.3,0,0,0,0,0,0,0,0,0,0,0,0,0,0,0,0,0,.1,0,0,0,0,0,0-.1,0,0,0,0,0-.1,0,0,0-.2,0-.2,0,0,0,0-.1,0,0,0,0,0-.1,0s0,0,0,0c0,0,0,0,0,0,0,0,0,.1.1.1h0,0s0,0,0,0h0s0,0,0,0h0s0,0,0,0h0s0,0,0,0h0s0,0,0,0h0s0,0,0,0h0s0,0,0,0h0s0,0,0,0h0s0,0,0,0h0s0,0,0,0h0s0,0-.1,0h0s0,0-.1,0h0s0,0,0,0h0s0,0,0,0h0s0,0,0,0h0s0,0,0,0h0s0,0,0,0h0s0,0,0,0h0s0,0,0,0h0s0,0,0,0c0,0,0,0,0,0,0,0,0,0-.1,0,0,0,0,0,0,0h0Z"/>
  <path class="st0" d="M91.1,45s0,0,0,.1c0,0,0,0,0,.1,0,0,0,0,.1.1,0,0,.2,0,.3,0,0,0,0,0,0,0,0,0,0,0,0,0,0,0,0,0,.1,0,0,0,0,0,0-.1,0,0,0,0,0-.1,0,0,0-.2,0-.2,0,0,0,0-.1,0,0,0,0,0-.1,0s0,0,0,0c0,0,0,0,0,0,0,0,0,.1.1.1h0,0s0,0,0,0h0s0,0,0,0h0s0,0,0,0h0s0,0,0,0h0s0,0,0,0h0s0,0,0,0h0s0,0,0,0h0s0,0,0,0h0s0,0,0,0h0s0,0,0,0h0s0,0-.1,0h0s0,0-.1,0h0s0,0,0,0h0s0,0,0,0h0s0,0,0,0h0s0,0,0,0h0s0,0,0,0h0s0,0,0,0h0s0,0,0,0h0s0,0,0,0c0,0,0,0,0,0,0,0,0,0-.1,0,0,0,0,0,0,0h0Z"/>
  <path class="st0" d="M135,27.9c0,0,0,.2,0,.3,0,0,0,0,0,.1,0,0,0,0,.1,0,0,0,0,0,0,0,0,0,0,0,0,0s0,0,0,0c0,0,0,0,0,0,0,0,0,0,.1,0,0,0,0,0,0-.1,0,0,0,0,0,0,0,0,0,0,0,0,0,0,0,0,0,0s0,0,0,0c0,0,0,0,0,0,0,0,0,0,0,0,0,0,0,0,0,0,0,0,0,0,0,0,0,0,0,0,0,0,0,0,0,0,0,0,0,0,0,0,0,0s0,0,0,0c0,0,0,0,0,0h0s0,0,0,0h0s0,0,0,0h0s0,0,0,0h0s0,0,0,0h0s0,0,0,0h0s0,0,0,0h0s0,0,0,0h0s0,0,0,0h0s0,0,0,0h0s0,0,0,0h0s0,0,0,0h0s0,0,0,0h0s0,0,0,0h0s0,0,0,0h0s0,0,0,0h0s0,0,0,0h0s0,0,0,0h0s0,0,0,0c0,0,0,0,0,0s0,0,0,0c0,0,0,0,0,0s0,0,0,0h0Z"/>
  <path class="st0" d="M136.9,24.1s0,0,0,0c0,0,0,0,0,0,0,0,0,.1,0,.2,0,0,0,.1,0,.1,0,0,0,0,.2,0,0,0,0,0,0,0,0,0,0,0,0,0,0,0,0,0,0,0,0,0,0,0,0,0,0,0,0,0,.1-.1,0,0,0,0,0,0,0,0,0,0,0,0,0,0,0,0,0,0,0,0,0,0,0,0,0-.1,0-.3-.2-.3,0,0,0,0-.1,0,0,0,0,0,0,0,0,0,0,0,0,.1,0,0,0,0,0,0,0,0,0,0,0,0h0s0,0,0,0h0s0,0,0,0h0s0,0,0,0h0s0,0,0,0h0s0,0,0,0h0s0,0,0,0h0s0,0,0,0h0s0,0,0,0h0s0,0,0,0h0s0,0,0,0h0s0,0,0,0h0s0,0,0,0h0s0,0,0,0h0s0,0,0,0h0s0,0,0,0h0s0,0,0,0h0s0,0,0,0h0s0,0,0,0h0s0,0,0,0h0s0,0,0,0c0,0,0,0,0,0,0,0,0,0,0,0,0,0,0,0,0,0s0,0,0,0h0Z"/>
  <path class="st0" d="M97.5,35.2c0,0-.2,0-.2,0,0,0,0,.1-.1.2,0,.2,0,.4,0,.5,0,0,0,.2.1.3,0,0,0,0,.1,0,0,0,0,0,0-.1,0,0,0-.1-.1-.2,0,0,0,0,0,0,0,0,0,0,0,0,0,0,0,0,0,0,0,0,0,0,0-.1,0,0,0,0,0,0h0c0,0,0-.1,0-.2h0c0,0,0,0,0,0,0,0,0,0,0,0,0,0,0,0,0,0,0,0,0,0,0,0,0,0,0,0,0,0,0,0,0,0,0,0,0,0,0,0,0,0,0,0,0,0,0,0,0,0,0,0,0,0,0,0,0,0,0,0,0,0,0,0,0,0,0,0,0,0,0,0,0,0,0,0,0,0,0,0,0,0,0,0h0s0,0,0,0c0,0,0,0,0,0,0,0,0,0,0,0h0Z"/>
</svg>