<svg width="190" height="112" viewBox="0 0 190 112" fill="none" xmlns="http://www.w3.org/2000/svg">
<path d="M42.1757 1.11677C42.9412 1.86429 43.3285 2.77392 43.3285 3.83666C43.3285 6.07021 42.0676 7.81742 39.5368 9.06028C37.3033 10.123 34.2412 10.6544 30.3595 10.6544C29.702 10.6544 28.6393 10.6184 27.1713 10.5463L19.0927 40.7893C18.7955 41.888 18.6514 42.7346 18.6514 43.32C18.6514 44.2747 18.9936 44.9501 19.6691 45.3554C20.3445 45.7607 21.5244 45.9949 23.2175 46.0669L23.0014 47.1657C20.6958 47.0576 17.3004 47.0036 12.8333 47.0036C8.36624 47.0036 5.25008 47.0576 3.16063 47.1657L3.37678 46.0669C4.95287 45.9949 6.16872 45.8057 7.03331 45.4905C7.89791 45.1843 8.57338 44.6619 9.06872 43.9505C9.56407 43.239 9.99637 42.1852 10.3566 40.7893L18.6424 9.72674C15.8955 9.47456 13.6979 9.33947 12.0408 9.33947C8.99668 9.33947 6.92524 9.65469 5.82648 10.2761C6.78114 10.5733 7.56468 11.1137 8.18611 11.8972C8.80754 12.6898 9.12276 13.6264 9.12276 14.7252C9.12276 16.0041 8.71748 17.1028 7.91593 17.9945C7.11437 18.8861 6.07865 19.3454 4.83579 19.3454C3.59293 19.3454 2.66529 18.9311 1.94479 18.1115C1.2333 17.283 0.873047 16.2473 0.873047 15.0044C0.873047 13.9777 1.15224 12.987 1.72864 12.0323C2.29603 11.0777 3.20566 10.2941 4.44852 9.6727C6.24077 8.79009 8.69947 8.35779 11.8156 8.35779C14.2383 8.35779 17.6427 8.57394 22.0377 9.01525C26.0725 9.3845 28.9995 9.56463 30.8368 9.56463C33.2955 9.56463 35.2319 9.33046 36.6638 8.85313C36.1145 8.33978 35.6551 7.70934 35.2859 6.95282C34.9166 6.2053 34.7365 5.38573 34.7365 4.50312C34.7365 3.18821 35.1328 2.09845 35.9163 1.26087C36.6999 0.414287 37.7536 0 39.0775 0C40.4014 0 41.3831 0.378262 42.1576 1.12578L42.1757 1.11677Z" fill="#8E4F23"/>
<path d="M55.6769 19.2104C56.4604 20.039 56.8567 21.1107 56.8567 22.4256C56.8567 24.0017 56.3524 25.3526 55.3437 26.4694C54.335 27.5862 53.1011 28.1446 51.6331 28.1446C50.5704 28.1446 49.7418 27.8654 49.1564 27.289C48.571 26.7216 48.2738 25.902 48.2738 24.8393C48.2738 23.5604 48.7151 22.3896 49.5887 21.3449C50.4713 20.3001 51.552 19.6337 52.8309 19.3365C52.7589 19.3365 52.6508 19.3095 52.4977 19.2554C52.3536 19.2014 52.2275 19.1744 52.1104 19.1744C50.2371 19.1744 48.3368 20.5343 46.3915 23.2452C44.4461 25.9561 42.4737 30.7924 40.4563 37.7632L38.0337 47.1658H30.2793L36.9889 23.4163C37.1691 22.8309 37.2681 22.2635 37.2681 21.7141C37.2681 21.0206 36.9709 20.6694 36.3855 20.6694C35.692 20.6694 35.0706 21.0026 34.5122 21.6601C33.9628 22.3175 33.3955 23.4343 32.8101 25.0104L31.7653 27.8113H30.7206L32.2066 23.6325C33.5576 19.8588 36.0883 17.9675 39.7899 17.9675C42.6088 17.9675 44.0228 19.4536 44.0228 22.4256C44.0228 23.4884 43.8787 24.5691 43.5815 25.6679L43.1402 27.4241C44.5001 23.9387 45.8781 21.498 47.2921 20.084C48.7061 18.67 50.3992 17.9675 52.3806 17.9675C53.7766 17.9675 54.8663 18.3818 55.6499 19.2014L55.6769 19.2104Z" fill="#8E4F23"/>
<path d="M63.3947 21.7591C63.3947 21.0296 63.0614 20.6604 62.404 20.6604C61.7465 20.6604 61.1431 21.0026 60.5937 21.6781C60.0443 22.3535 59.4769 23.4613 58.8915 25.0014L57.7928 27.8023H56.748L58.2881 23.6234C59.6391 19.8498 62.1878 17.9585 65.9344 17.9585C67.6186 17.9585 68.8524 18.3728 69.618 19.1923C70.3925 20.0209 70.7708 21.0927 70.7708 22.4076C70.7708 23.4703 70.5726 24.5511 70.1673 25.6498L64.3943 42.4735C64.1782 43.1309 64.0611 43.6623 64.0611 44.0676C64.0611 44.8331 64.4304 45.2204 65.1599 45.2204C65.7093 45.2204 66.2676 44.9052 66.835 44.2837C67.4024 43.6623 67.9968 42.5275 68.6183 40.8704L69.609 38.2315H70.6537L69.2217 42.2483C67.9428 46.0219 65.4661 47.9132 61.8005 47.9132C58.4682 47.9132 56.7931 46.3912 56.7931 43.3471C56.7931 42.1402 57.0723 40.7443 57.6217 39.1682L63.0074 23.3893C63.2596 22.5427 63.3947 21.9933 63.3947 21.7411V21.7591ZM66.745 5.98019C67.8077 5.09758 69.1226 4.66528 70.7077 4.66528C71.9866 4.66528 72.9863 4.96249 73.7068 5.57491C74.4183 6.17833 74.7785 7.01591 74.7785 8.07865C74.7785 9.54666 74.2292 10.7535 73.1304 11.7082C72.0316 12.6628 70.6717 13.1402 69.0596 13.1402C67.7447 13.1402 66.736 12.8159 66.0335 12.1765C65.34 11.537 65.0248 10.6634 65.0968 9.56468C65.1329 8.06064 65.6822 6.87181 66.745 5.9892V5.98019Z" fill="#8E4F23"/>
<path d="M101.274 16.4816C101.895 17.103 102.211 17.9676 102.211 19.0664C102.211 20.057 101.95 20.8316 101.445 21.399C100.932 21.9664 100.328 22.2546 99.6349 22.2546C98.9054 22.2546 98.257 21.9754 97.7076 21.399C97.1582 20.8316 96.879 20.048 96.879 19.0664C96.879 18.3729 97.0411 17.5623 97.3743 16.6437C95.9424 17.2651 94.8436 18.0937 94.0781 19.1204C95.0327 19.5977 95.7622 20.2642 96.2756 21.1288C96.7889 21.9934 97.0411 23.0291 97.0411 24.2359C97.0411 25.776 96.6088 27.3071 95.7532 28.8291C94.8886 30.3512 93.6728 31.6661 92.0967 32.7919C90.5206 33.9086 88.6923 34.6742 86.6029 35.0704C84.5495 35.9891 83.0724 36.7186 82.1808 37.268C81.2802 37.8173 80.8299 38.3487 80.8299 38.8621C80.8299 39.1953 81.028 39.4745 81.4333 39.7177C81.8386 39.9608 82.46 40.204 83.3066 40.4562L87.9268 41.9962C89.8721 42.6537 91.3942 43.4192 92.52 44.2748C93.6368 45.1394 94.1951 46.3553 94.1951 47.9314C94.1951 49.6876 93.4296 51.3087 91.9166 52.7947C90.3945 54.2808 88.3501 55.4606 85.7833 56.3432C83.2165 57.2258 80.4516 57.6581 77.4796 57.6581C74.5075 57.6581 72.2379 57.2708 70.3286 56.5053C68.4193 55.7308 67.4736 54.7311 67.4736 53.4792C67.4736 52.2273 68.5003 51.1015 70.5538 50.2099C72.6072 49.3093 74.9308 48.7149 77.5336 48.4267L77.7498 49.2553C75.4802 50.4981 74.3364 51.9481 74.3364 53.5963C74.3364 54.623 74.7237 55.3975 75.4892 55.9289C76.2547 56.4603 77.3175 56.7305 78.6774 56.7305C80.0373 56.7305 81.4513 56.4603 82.9373 55.9289C84.4234 55.3975 85.6572 54.686 86.6479 53.7854C87.6386 52.8848 88.1339 51.9211 88.1339 50.9034C88.1339 50.318 87.9178 49.8857 87.5035 49.6065C87.0802 49.3363 86.3417 49.0481 85.279 48.7509L77.4706 46.4994C76.4799 46.2022 75.6873 45.7609 75.0749 45.1484C74.4715 44.545 74.1653 43.7975 74.1653 42.9239C74.1653 41.609 74.9398 40.3751 76.4979 39.2403C78.056 38.1056 80.5597 36.7996 84.0001 35.3406H83.4507C80.992 35.3406 79.0016 34.8273 77.4886 33.8006C75.9665 32.7739 75.21 31.2338 75.21 29.1804C75.21 27.4962 75.7324 25.794 76.7771 24.0648C77.8218 22.3446 79.3709 20.9036 81.4243 19.7508C83.4777 18.598 85.9184 18.0216 88.7374 18.0216C90.2774 18.0216 91.7094 18.2198 93.0243 18.6251C93.6818 17.7064 94.5194 16.9679 95.5281 16.4005C96.5368 15.8331 97.5725 15.5449 98.6352 15.5449C99.77 15.5449 100.653 15.8601 101.274 16.4816ZM88.188 30.6394C89.0706 28.1627 89.5029 25.4428 89.5029 22.4707C89.5029 21.372 89.3858 20.5164 89.1426 19.9129C88.8995 19.3095 88.4402 19.0033 87.7377 19.0033C86.6749 19.0033 85.7473 19.6428 84.9637 20.9307C84.1712 22.2095 83.5858 23.7946 83.2075 25.6859C82.8203 27.5773 82.6311 29.3785 82.6311 31.0987C82.6311 32.2695 82.7752 33.1071 83.0724 33.6024C83.3696 34.0978 83.8019 34.3409 84.3873 34.3409C86.0355 34.3409 87.3054 33.1071 88.179 30.6304L88.188 30.6394Z" fill="#8E4F23"/>
<path d="M101.851 29.4595C103.228 26.1992 105.264 23.4703 107.957 21.2638C110.65 19.0573 113.865 17.9675 117.602 17.9675C120.457 17.9675 122.664 18.7511 124.204 20.3001C125.744 21.8582 126.51 24.1008 126.51 27.0368C126.51 29.9728 125.825 33.1791 124.447 36.4393C123.069 39.6996 121.043 42.4285 118.341 44.635C115.648 46.8325 112.433 47.9313 108.695 47.9313C105.84 47.9313 103.634 47.1568 102.094 45.5987C100.554 44.0406 99.7881 41.798 99.7881 38.862C99.7881 35.926 100.473 32.7198 101.851 29.4595ZM112.874 22.975C111.262 25.5778 109.902 28.766 108.803 32.5396C107.705 36.3132 107.155 39.8347 107.155 43.0949C107.155 44.4098 107.299 45.3645 107.597 45.9499C107.894 46.5353 108.362 46.8325 109.028 46.8325C110.379 46.8325 111.856 45.5717 113.451 43.0409C115.045 40.5101 116.396 37.367 117.494 33.6114C118.593 29.8558 119.142 26.2893 119.142 22.921C119.142 21.489 118.998 20.4893 118.701 19.9219C118.404 19.3545 117.954 19.0663 117.323 19.0663C115.963 19.0663 114.486 20.3632 112.874 22.966V22.975Z" fill="#8E4F23"/>
<path d="M33.8274 65.6374C34.4579 66.2498 34.7731 66.9973 34.7731 67.8619C34.7731 69.6902 33.7374 71.1222 31.6659 72.1399C29.8377 73.0135 27.3249 73.4458 24.1457 73.4458C23.6054 73.4458 22.7317 73.4187 21.5339 73.3557L14.9143 98.1139C14.6712 99.0145 14.5541 99.708 14.5541 100.185C14.5541 100.969 14.8333 101.518 15.3827 101.851C15.941 102.185 16.9047 102.374 18.2827 102.437L18.1025 103.337C16.2112 103.247 13.4373 103.202 9.77177 103.202C6.10623 103.202 3.55746 103.247 1.84628 103.337L2.0264 102.437C3.3143 102.374 4.31399 102.221 5.01648 101.96C5.71896 101.707 6.27735 101.284 6.68263 100.699C7.08791 100.113 7.43915 99.2486 7.73636 98.1139L14.5361 72.6802C12.2845 72.4731 10.4833 72.365 9.13233 72.365C6.6376 72.365 4.94443 72.6172 4.0438 73.1305C4.82734 73.3737 5.46679 73.815 5.98014 74.4545C6.4935 75.1029 6.74567 75.8684 6.74567 76.7691C6.74567 77.8228 6.41244 78.7144 5.75499 79.4439C5.09753 80.1824 4.25094 80.5427 3.23324 80.5427C2.21553 80.5427 1.45901 80.2004 0.873605 79.534C0.2882 78.8585 0 78.0119 0 76.9942C0 76.1566 0.234162 75.3461 0.702487 74.5625C1.17081 73.779 1.90932 73.1396 2.92703 72.6262C4.39504 71.9057 6.41244 71.5454 8.96121 71.5454C10.9426 71.5454 13.7345 71.7256 17.337 72.0858C20.6423 72.383 23.038 72.5361 24.542 72.5361C26.5504 72.5361 28.1445 72.338 29.3153 71.9507C28.865 71.5274 28.4867 71.0141 28.1895 70.4017C27.8923 69.7892 27.7392 69.1228 27.7392 68.4023C27.7392 67.3215 28.0634 66.4389 28.7119 65.7454C29.3603 65.052 30.2159 64.7097 31.2967 64.7097C32.3774 64.7097 33.188 65.0159 33.8184 65.6284L33.8274 65.6374Z" fill="#8E4F23"/>
<path d="M44.8877 80.4437C45.5362 81.1192 45.8514 81.9928 45.8514 83.0736C45.8514 84.3614 45.4371 85.4692 44.6176 86.3788C43.789 87.2975 42.7803 87.7478 41.5825 87.7478C40.7088 87.7478 40.0334 87.5136 39.5561 87.0543C39.0787 86.586 38.8356 85.9195 38.8356 85.0549C38.8356 84.0012 39.1958 83.0555 39.9163 82.1999C40.6368 81.3444 41.5194 80.795 42.5731 80.5608C42.5101 80.5608 42.42 80.5338 42.303 80.4888C42.1859 80.4437 42.0778 80.4167 41.9877 80.4167C40.4567 80.4167 38.8986 81.5245 37.3045 83.749C35.7104 85.9736 34.0893 89.9273 32.4411 95.6283L30.4598 103.329H24.1104L29.6042 83.8841C29.7573 83.4068 29.8293 82.9385 29.8293 82.4881C29.8293 81.9208 29.5861 81.6326 29.1088 81.6326C28.5414 81.6326 28.0281 81.9027 27.5778 82.4431C27.1274 82.9835 26.6591 83.9021 26.1818 85.19L25.3262 87.4866H24.4706L25.6864 84.0642C26.7942 80.9751 28.8656 79.426 31.9007 79.426C34.2063 79.426 35.3682 80.6419 35.3682 83.0736C35.3682 83.9472 35.2511 84.8298 35.0079 85.7304L34.6477 87.1714C35.7554 84.3164 36.8902 82.317 38.043 81.1642C39.1958 80.0114 40.5828 79.435 42.2039 79.435C43.3477 79.435 44.2393 79.7773 44.8787 80.4437H44.8877Z" fill="#8E4F23"/>
<path d="M66.286 96.0428H67.1416L66.0158 99.3301C65.4124 101.014 64.5838 102.203 63.5211 102.906C62.4583 103.608 61.3055 103.959 60.0807 103.959C58.5226 103.959 57.4058 103.491 56.7484 102.563C56.3251 102.023 56.1179 101.275 56.1179 100.312C56.1179 99.5282 56.253 98.6456 56.5232 97.6549C55.5055 99.8795 54.3707 101.483 53.1279 102.473C51.885 103.464 50.5071 103.959 49.012 103.959C47.3639 103.959 46.112 103.473 45.2564 102.5C44.4008 101.528 43.9775 100.168 43.9775 98.4295C43.9775 95.7546 44.689 92.9266 46.112 89.9456C47.535 86.9555 49.3453 84.4608 51.5338 82.4524C53.7223 80.444 55.8658 79.4353 57.9732 79.4353C58.7838 79.4353 59.4322 79.6785 59.9276 80.1558C60.4229 80.6331 60.7111 81.3536 60.8012 82.3173L61.4316 80.1108C63.8363 80.0838 66.0068 79.8586 67.9612 79.4353L62.0621 99.5102C61.909 100.024 61.8369 100.438 61.8369 100.771C61.8369 101.429 62.1251 101.762 62.6925 101.762C63.7462 101.762 64.6739 100.573 65.4844 98.2043L66.295 96.0428H66.286ZM60.2968 84.0735C60.3239 83.9204 60.3419 83.6953 60.3419 83.398C60.3419 82.6505 60.2158 82.0741 59.9636 81.6869C59.7114 81.2996 59.3242 81.1015 58.8198 81.1015C57.8021 81.1015 56.6403 82.0201 55.3344 83.8484C54.0285 85.6766 52.9207 87.9732 52.0021 90.7381C51.0835 93.5031 50.6331 96.1689 50.6331 98.7537C50.6331 99.7444 50.7322 100.456 50.9304 100.888C51.1285 101.32 51.4437 101.537 51.894 101.537C52.5515 101.537 53.281 101.077 54.0735 100.168C54.8661 99.249 55.6676 97.9341 56.4602 96.2049C57.2527 94.4757 57.9552 92.4313 58.5496 90.0627L58.3245 91.1434L60.3059 84.0735H60.2968Z" fill="#8E4F23"/>
<path d="M92.3944 96.0424H93.25L92.1692 99.3296C91.6289 101.041 90.8273 102.239 89.7646 102.932C88.7018 103.626 87.522 103.968 86.2341 103.968C84.3698 103.968 83.19 103.274 82.6767 101.896C82.4335 101.356 82.3164 100.726 82.3164 100.005C82.3164 99.1315 82.4965 98.0688 82.8568 96.8079L82.9018 96.6278C81.758 99.1765 80.5512 101.041 79.2813 102.212C78.0024 103.382 76.4804 103.968 74.7152 103.968C73.1211 103.968 71.8332 103.445 70.8425 102.392C69.8518 101.338 69.3564 99.7619 69.3564 97.6635C69.3564 95.2318 69.9869 92.584 71.2478 89.72C72.5086 86.856 74.2829 84.4243 76.5614 82.4249C78.84 80.4255 81.4338 79.4349 84.3518 79.4349C85.7658 79.4349 86.6754 79.9482 87.0987 80.9659L89.1251 73.3106C89.2782 72.7703 89.3503 72.347 89.3503 72.0498C89.3503 71.4463 89.1161 71.014 88.6568 70.7438C88.1885 70.4737 87.4049 70.3386 86.2972 70.3386L86.5674 69.3929C88.6388 69.3659 90.5211 69.1948 92.2143 68.8976C93.9075 68.6004 95.5376 68.15 97.0957 67.5466L88.2695 99.5098C88.1164 99.9331 88.0444 100.338 88.0444 100.726C88.0444 101.419 88.3326 101.761 88.9 101.761C89.3503 101.761 89.8006 101.5 90.2509 100.969C90.7012 100.446 91.1696 99.5188 91.6469 98.2039L92.4124 96.0424H92.3944ZM86.7655 82.0467C86.4323 80.9929 85.8379 80.4706 84.9643 80.4706C83.6764 80.4706 82.3344 81.3892 80.9385 83.2355C79.5425 85.0818 78.3717 87.4144 77.426 90.2333C76.4804 93.0523 76.0121 95.8442 76.0121 98.6091C76.0121 99.6629 76.1201 100.437 76.3543 100.951C76.5885 101.464 76.9487 101.716 77.4531 101.716C78.0565 101.716 78.759 101.275 79.5695 100.392C80.3801 99.5098 81.2267 98.2219 82.1093 96.5467C82.9919 94.8626 83.7934 92.8722 84.5139 90.5576L86.7655 82.0467Z" fill="#8E4F23"/>
<path d="M101.842 82.5421C101.842 81.9386 101.572 81.6414 101.032 81.6414C100.491 81.6414 99.9961 81.9206 99.5457 82.47C99.0954 83.0284 98.6271 83.929 98.1498 85.1899L97.2491 87.4865H96.3936L97.6544 84.0641C98.7622 80.975 100.852 79.4259 103.914 79.4259C105.292 79.4259 106.3 79.7681 106.931 80.4346C107.561 81.1101 107.877 81.9837 107.877 83.0644C107.877 83.938 107.714 84.8206 107.381 85.7213L102.653 99.4918C102.473 100.032 102.383 100.464 102.383 100.798C102.383 101.428 102.68 101.743 103.283 101.743C103.734 101.743 104.193 101.491 104.652 100.978C105.121 100.464 105.607 99.5368 106.111 98.1859L106.922 96.0244H107.777L106.607 99.3117C105.553 102.401 103.526 103.95 100.527 103.95C97.7985 103.95 96.4296 102.707 96.4296 100.212C96.4296 99.2216 96.6547 98.0778 97.105 96.7899L101.518 83.875C101.725 83.1815 101.833 82.7312 101.833 82.524L101.842 82.5421ZM104.589 69.6181C105.463 68.8976 106.544 68.5374 107.831 68.5374C108.885 68.5374 109.696 68.7895 110.281 69.2849C110.867 69.7802 111.155 70.4647 111.155 71.3293C111.155 72.5271 110.704 73.5178 109.804 74.3013C108.903 75.0849 107.795 75.4722 106.472 75.4722C105.391 75.4722 104.562 75.211 103.995 74.6796C103.427 74.1572 103.166 73.4458 103.229 72.5451C103.256 71.3113 103.707 70.3386 104.58 69.6181H104.589Z" fill="#8E4F23"/>
<path d="M115.982 106.445C116.882 106.148 117.693 105.995 118.413 105.995C119.224 105.995 119.872 106.157 120.368 106.49C120.863 106.823 121.115 107.283 121.115 107.886C121.115 109.21 120.368 110.192 118.891 110.831C117.405 111.48 115.685 111.804 113.739 111.804C112.902 111.804 112.118 111.714 111.398 111.534C110.677 111.353 110.119 111.146 109.731 110.903L110.002 110.228C110.065 110.255 110.344 110.345 110.83 110.498C111.326 110.651 111.965 110.723 112.74 110.723C113.514 110.723 114.334 110.57 115.099 110.273C115.865 109.975 116.252 109.435 116.252 108.652C116.252 108.318 116.144 108.066 115.91 107.886C115.685 107.706 115.378 107.616 114.991 107.616C114.478 107.616 114.018 107.724 113.595 107.931L116.702 103.338H117.963L115.982 106.445ZM121.629 82.7406C120.233 84.3437 119.098 86.4512 118.233 89.045C117.36 91.6388 116.927 94.3046 116.927 97.0335C116.927 100.033 118.071 101.537 120.35 101.537C122.511 101.537 124.493 100.213 126.294 97.5739L127.195 97.9341C126.114 99.6723 124.745 101.113 123.079 102.257C121.413 103.401 119.512 103.968 117.387 103.968C115.261 103.968 113.451 103.383 112.145 102.212C110.839 101.041 110.191 99.3211 110.191 97.0335C110.191 94.4487 110.839 91.7919 112.127 89.045C113.415 86.2981 115.234 84.0105 117.576 82.1822C119.918 80.3539 122.574 79.4353 125.546 79.4353C127.195 79.4353 128.527 79.8496 129.527 80.6782C130.536 81.5067 131.031 82.5335 131.031 83.7583C131.031 84.5689 130.833 85.3614 130.446 86.145C130.059 86.9285 129.518 87.5589 128.825 88.0363C128.131 88.5136 127.384 88.7568 126.573 88.7568C125.826 88.7568 125.204 88.5136 124.727 88.0363C124.25 87.5589 124.006 86.9285 124.006 86.145C124.006 84.9741 124.412 83.9294 125.222 83.0198C126.033 82.1012 126.996 81.5157 128.104 81.2456C127.591 80.6421 126.87 80.3449 125.943 80.3449C124.475 80.3449 123.043 81.1465 121.647 82.7496L121.629 82.7406Z" fill="#8E4F23"/>
<path d="M152.979 96.0424H153.835L152.709 99.3297C152.106 101.014 151.277 102.203 150.214 102.905C149.152 103.608 147.999 103.959 146.774 103.959C145.216 103.959 144.099 103.491 143.442 102.563C143.018 102.023 142.811 101.275 142.811 100.311C142.811 99.5278 142.946 98.6452 143.217 97.6545C142.199 99.8791 141.064 101.482 139.821 102.473C138.578 103.464 137.2 103.959 135.705 103.959C134.057 103.959 132.805 103.473 131.95 102.5C131.094 101.527 130.671 100.167 130.671 98.4291C130.671 95.7542 131.382 92.9263 132.805 89.9452C134.228 86.9551 136.039 84.4604 138.227 82.452C140.416 80.4436 142.559 79.4349 144.667 79.4349C145.477 79.4349 146.126 79.6781 146.621 80.1554C147.116 80.6327 147.404 81.3532 147.495 82.3169L148.125 80.1104C150.53 80.0834 152.7 79.8582 154.655 79.4349L148.755 99.5098C148.602 100.023 148.53 100.437 148.53 100.771C148.53 101.428 148.818 101.761 149.386 101.761C150.44 101.761 151.367 100.573 152.178 98.2039L152.988 96.0424H152.979ZM146.99 84.0731C147.017 83.92 147.035 83.6949 147.035 83.3977C147.035 82.6501 146.909 82.0737 146.657 81.6865C146.405 81.2992 146.018 81.1011 145.513 81.1011C144.495 81.1011 143.334 82.0197 142.028 83.848C140.722 85.6762 139.614 87.9728 138.695 90.7377C137.777 93.5027 137.327 96.1685 137.327 98.7533C137.327 99.744 137.426 100.455 137.624 100.888C137.822 101.32 138.137 101.536 138.587 101.536C139.245 101.536 139.974 101.077 140.767 100.167C141.559 99.2486 142.361 97.9337 143.154 96.2045C143.946 94.4753 144.649 92.4309 145.243 90.0623L145.018 91.143L146.999 84.0731H146.99ZM148.476 68.4293C149.044 68.7445 149.665 69.2038 150.323 69.7982C150.863 70.2756 151.331 70.6358 151.736 70.879C152.142 71.1222 152.61 71.2392 153.15 71.2392C153.754 71.2392 154.303 71.0411 154.817 70.6358C155.33 70.2305 155.834 69.5641 156.348 68.6364L157.158 68.8616C156.375 70.96 155.375 72.5271 154.141 73.5628C152.907 74.5986 151.601 75.1119 150.223 75.1119C149.35 75.1119 148.629 74.9588 148.062 74.6436C147.495 74.3284 146.873 73.8691 146.216 73.2746C145.675 72.7973 145.207 72.4371 144.793 72.1939C144.387 71.9507 143.919 71.8336 143.379 71.8336C142.208 71.8336 141.145 72.7072 140.181 74.4455L139.371 74.2203C140.154 72.1218 141.163 70.5548 142.406 69.519C143.649 68.4833 144.946 67.97 146.297 67.97C147.17 67.97 147.891 68.1231 148.458 68.4383L148.476 68.4293Z" fill="#8E4F23"/>
<path d="M158.087 88.8376C159.213 86.1627 160.879 83.9291 163.086 82.1279C165.292 80.3266 167.922 79.426 170.984 79.426C173.326 79.426 175.127 80.0655 176.388 81.3354C177.649 82.6052 178.279 84.4515 178.279 86.8472C178.279 89.2428 177.721 91.8726 176.595 94.5475C175.47 97.2224 173.803 99.4559 171.597 101.257C169.39 103.058 166.76 103.959 163.698 103.959C161.357 103.959 159.555 103.32 158.295 102.05C157.034 100.78 156.403 98.9335 156.403 96.5379C156.403 94.1422 156.962 91.5124 158.087 88.8376ZM167.112 83.5329C165.788 85.6674 164.68 88.2702 163.779 91.3683C162.879 94.4574 162.428 97.3394 162.428 100.014C162.428 101.095 162.546 101.879 162.789 102.356C163.032 102.833 163.419 103.076 163.96 103.076C165.067 103.076 166.274 102.041 167.58 99.9693C168.886 97.8978 169.985 95.322 170.885 92.2509C171.786 89.1708 172.236 86.2528 172.236 83.4968C172.236 82.326 172.119 81.5065 171.876 81.0472C171.633 80.5788 171.264 80.3537 170.75 80.3537C169.642 80.3537 168.427 81.4164 167.103 83.5509L167.112 83.5329Z" fill="#8E4F23"/>
<path d="M56.4427 56.8655C56.884 57.2438 57.1091 57.8562 57.1091 58.6938C57.1091 59.6034 56.8299 60.3419 56.2715 60.9003C55.7132 61.4587 54.8486 61.945 53.6868 62.3683C53.1464 62.5754 52.7771 62.7015 52.57 62.7646C53.0833 63.314 53.3445 63.9984 53.3445 64.818C53.3445 65.6376 53.0923 66.3671 52.597 67.0966C52.1016 67.8261 51.3631 68.4115 50.3815 68.8708C49.3998 69.3301 48.22 69.5553 46.824 69.5553C45.1398 69.5553 43.7889 69.213 42.7532 68.5286C41.7175 67.8441 41.2041 66.8714 41.2041 65.6105C41.2041 64.4487 41.6454 63.431 42.519 62.5664C43.3926 61.7018 44.5724 61.1164 46.0495 60.8012C45.5181 60.6211 45.1218 60.3689 44.8606 60.0357C44.5995 59.7025 44.4644 59.3332 44.4644 58.9279C44.4644 58.4506 44.6355 58.0363 44.9687 57.6941C45.3019 57.3518 45.7432 57.0906 46.2836 56.9195C46.824 56.7484 47.3914 56.6583 47.9768 56.6583C48.7063 56.6583 49.2737 56.7934 49.661 57.0546C50.0482 57.3158 50.2464 57.667 50.2464 58.0993C50.2464 58.4956 50.1023 58.8018 49.8141 59.027C49.5259 59.2521 49.2106 59.3602 48.8594 59.3602V59.036C49.1476 59.036 49.3818 58.9549 49.5709 58.7928C49.76 58.6307 49.8501 58.4146 49.8501 58.1534C49.8501 57.8652 49.733 57.631 49.4898 57.4599C49.2467 57.2888 48.9405 57.1987 48.5532 57.1987C48.1209 57.1987 47.7156 57.3068 47.3464 57.5229C46.9771 57.7391 46.6709 58.0453 46.4457 58.4416C46.2206 58.8379 46.1035 59.2792 46.1035 59.7745C46.1035 60.1077 46.1665 60.4139 46.3016 60.6931C46.7339 60.6211 47.1122 60.5851 47.4364 60.5851C47.8687 60.5851 48.0849 60.7111 48.0849 60.9633C48.0849 61.0804 48.0308 61.1795 47.9228 61.2425C47.8147 61.3056 47.6796 61.3416 47.5265 61.3416C47.2293 61.3416 46.815 61.2065 46.2836 60.9453C45.6442 61.1885 45.1218 61.6568 44.6985 62.3503C44.2752 63.0438 44.0681 63.8183 44.0681 64.6739C44.0681 65.7546 44.4283 66.5832 45.1488 67.1506C45.8693 67.718 46.869 68.0062 48.1389 68.0062C48.9945 68.0062 49.787 67.8801 50.5166 67.6279C51.2461 67.3758 51.8405 66.9975 52.2908 66.4932C52.7411 65.9888 52.9662 65.3764 52.9662 64.6559C52.9662 63.9354 52.7411 63.332 52.2998 62.8546L50.2464 63.5571C49.8771 63.6652 49.4898 63.7913 49.0936 63.9354C48.5622 64.1155 48.1479 64.3317 47.8507 64.5748C47.5535 64.818 47.4004 65.1242 47.4004 65.4845C47.4004 65.8177 47.5265 66.0699 47.7696 66.232C48.0128 66.3941 48.319 66.4751 48.6793 66.4751C49.1476 66.4751 49.5439 66.3581 49.8771 66.1149C50.2103 65.8717 50.4355 65.6196 50.5706 65.3584L50.8408 65.5025C50.6607 65.8537 50.3815 66.1599 50.0122 66.4211C49.6429 66.6823 49.1746 66.8174 48.6072 66.8174C48.0038 66.8174 47.4995 66.6553 47.0762 66.322C46.6529 65.9888 46.4457 65.4755 46.4457 64.782C46.4457 63.341 47.4995 62.2782 49.5979 61.5938L50.9128 61.1615C52.615 60.6121 53.7588 60.2248 54.3352 60.0087C55.0287 59.7565 55.5691 59.4953 55.9473 59.2251C56.3256 58.9549 56.5147 58.5767 56.5147 58.0813C56.5147 57.64 56.3436 57.2798 56.0014 57.0006C55.6591 56.7214 55.2358 56.5863 54.7315 56.5863C54.5153 56.5863 54.3442 56.6223 54.2091 56.6944C54.7405 56.9105 55.0017 57.2618 55.0017 57.7571C55.0017 58.1444 54.8395 58.4506 54.5063 58.6938C54.1731 58.9369 53.8038 59.054 53.3805 59.054C52.9933 59.054 52.6871 58.9459 52.4439 58.7388C52.2007 58.5316 52.0836 58.2524 52.0836 57.9192C52.0836 57.586 52.1827 57.3158 52.3808 57.0906C52.579 56.8655 52.8492 56.6854 53.2004 56.5503C53.5967 56.3792 54.083 56.2981 54.6594 56.2981C55.4069 56.2981 56.0014 56.4872 56.4427 56.8655Z" fill="#8E4F23"/>
<path d="M118.576 57.55C118.216 58.1444 118.315 58.937 118.738 59.4683C118.856 59.6124 119 59.7385 119.162 59.8376C119.243 59.8826 119.369 59.8556 119.414 59.7746C119.459 59.6935 119.441 59.5764 119.351 59.5224C119.324 59.5044 119.288 59.4864 119.261 59.4683C119.243 59.4593 119.234 59.4503 119.216 59.4413C119.207 59.4413 119.198 59.4233 119.189 59.4143C119.135 59.3693 119.081 59.3152 119.036 59.2612C119.027 59.2522 119.018 59.2342 119 59.2252C119.018 59.2522 118.982 59.2072 119 59.2252C119 59.2252 118.991 59.2072 118.982 59.2072C118.964 59.1801 118.937 59.1441 118.919 59.1171C118.901 59.0901 118.883 59.0541 118.865 59.027C118.847 59 118.819 58.955 118.81 58.919C118.81 58.919 118.81 58.901 118.801 58.8919C118.801 58.8739 118.792 58.8559 118.783 58.8469C118.774 58.8109 118.756 58.7749 118.747 58.7388C118.747 58.7028 118.729 58.6758 118.72 58.6398C118.72 58.6218 118.72 58.6037 118.711 58.5857C118.711 58.5857 118.711 58.5677 118.711 58.5587C118.711 58.5407 118.693 58.5137 118.711 58.5587C118.702 58.5317 118.711 58.4867 118.702 58.4506C118.702 58.4146 118.702 58.3786 118.702 58.3426C118.702 58.3065 118.702 58.2705 118.702 58.2345C118.702 58.2165 118.702 58.1985 118.702 58.1805C118.702 58.1534 118.702 58.2165 118.702 58.1895C118.702 58.1805 118.702 58.1714 118.702 58.1534C118.72 58.0724 118.738 57.9913 118.765 57.9103C118.765 57.9103 118.765 57.8923 118.774 57.8832C118.774 57.8832 118.792 57.8382 118.774 57.8652C118.774 57.8562 118.783 57.8472 118.792 57.8382C118.81 57.8022 118.829 57.7572 118.856 57.7211C118.91 57.6401 118.874 57.514 118.792 57.469C118.711 57.4239 118.594 57.4509 118.54 57.532L118.576 57.55Z" fill="#8E4F23"/>
<path d="M123.097 51.3896C122.665 51.7499 122.593 52.3983 122.827 52.8846C122.89 53.0197 122.989 53.1368 123.097 53.2359C123.133 53.2719 123.178 53.2899 123.232 53.2899C123.277 53.2899 123.331 53.2719 123.367 53.2359C123.43 53.1638 123.448 53.0378 123.367 52.9747C123.322 52.9387 123.286 52.9027 123.25 52.8576C123.25 52.8576 123.25 52.8486 123.241 52.8396C123.268 52.8666 123.259 52.8666 123.25 52.8576C123.241 52.8486 123.232 52.8396 123.223 52.8216C123.205 52.7946 123.187 52.7676 123.178 52.7496C123.169 52.7225 123.151 52.7045 123.142 52.6775C123.142 52.6775 123.142 52.6685 123.142 52.6595C123.142 52.6595 123.16 52.7045 123.142 52.6775C123.142 52.6595 123.133 52.6505 123.124 52.6325C123.106 52.5784 123.088 52.5244 123.079 52.4704C123.079 52.4614 123.079 52.4433 123.079 52.4343C123.079 52.4073 123.079 52.4794 123.079 52.4523C123.079 52.4523 123.079 52.4433 123.079 52.4343C123.079 52.4073 123.079 52.3803 123.079 52.3533C123.079 52.2992 123.079 52.2362 123.079 52.1822C123.079 52.2452 123.079 52.2002 123.079 52.1822C123.079 52.1732 123.079 52.1551 123.079 52.1461C123.079 52.1191 123.088 52.0921 123.097 52.0561C123.097 52.0291 123.115 52.002 123.124 51.984C123.124 51.984 123.124 51.975 123.124 51.966C123.133 51.939 123.124 51.984 123.124 51.984C123.124 51.966 123.142 51.957 123.142 51.939C123.151 51.912 123.169 51.885 123.187 51.8579C123.187 51.8399 123.205 51.8309 123.214 51.8129C123.214 51.8129 123.25 51.7679 123.232 51.7949C123.214 51.8219 123.25 51.7769 123.25 51.7679C123.259 51.7589 123.268 51.7499 123.277 51.7318C123.304 51.7048 123.322 51.6868 123.349 51.6598C123.421 51.5968 123.421 51.4617 123.349 51.3986C123.268 51.3266 123.169 51.3356 123.088 51.3986L123.097 51.3896Z" fill="#8E4F23"/>
<path d="M139.136 29.7744C139.136 31.8729 139.136 37.2496 139.136 39.276V40.8611C138.983 42.8785 140.235 44.4906 142.081 45.1931C145.576 46.9313 151.358 49.7773 154.87 51.5155L156.293 52.218C156.6 52.3621 156.942 52.3711 157.248 52.245C158.131 51.8667 157.914 50.9121 157.914 50.1375L157.707 37.4838C157.815 36.412 158.068 35.1872 158.581 34.2415C158.68 34.0434 158.716 33.8903 158.734 33.6831C158.77 32.9626 158.626 32.2061 158.518 31.4676C158.473 31.3415 158.572 31.6387 158.563 31.6027C158.518 31.5306 158.446 31.3865 158.41 31.3145C155.987 26.3971 150.989 22.8576 145.54 22.1912C143.685 21.948 141.784 22.0651 139.983 22.5244L140.19 22.4343L139.74 22.7676C137.641 24.2536 137.272 27.4958 139.001 29.4142C139.001 29.4142 139.01 29.4322 139.019 29.4412C139.073 29.5853 138.902 29.117 139.145 29.7744H139.136ZM138.146 29.7654C138.389 30.4229 138.209 29.9455 138.263 30.0896C135.984 27.5859 136.732 23.362 139.596 21.6598L139.713 21.5787H139.803C143.658 21.1194 147.62 21.6238 151.124 23.317C154.582 24.9741 157.5 27.766 159.391 31.0983L159.418 31.1344V31.1524C159.418 31.1524 159.482 31.2965 159.482 31.3055C159.626 32.116 159.806 32.9086 159.788 33.7552C159.788 34.0614 159.689 34.4307 159.563 34.7008C159.121 35.5204 158.95 36.8713 158.878 37.4658L159.229 50.1375L159.247 50.9301C159.509 52.8124 157.356 54.3615 155.672 53.4338C152.195 51.6866 146.44 48.7776 142.955 47.0214C142.072 46.508 140.92 46.1027 140.055 45.4813C138.614 44.4456 137.795 42.5813 137.921 40.8431L137.948 39.258C137.984 37.2496 138.101 31.8369 138.146 29.7564V29.7654Z" fill="#8E4F23"/>
<path d="M139.426 22.3985L145.145 18.832C152.026 14.5361 159.915 12.1314 168.021 11.8612L172.758 11.7171C177.954 11.555 183.007 13.4553 186.817 16.9948L187.627 17.9224C189.185 19.7146 189.518 22.2814 188.456 24.4069L185.556 26.1991C179.882 29.7026 173.812 32.4945 167.471 34.5299L158.303 37.4749" stroke="#8E4F23" stroke-width="1.09" stroke-miterlimit="10"/>
<path d="M188.96 23.272C189.068 27.676 189.33 32.2872 189.321 36.7723C179.504 42.8605 169.165 48.1292 158.555 52.6683L157.862 52.9746V52.218L157.799 37.4748V37.0425L158.195 36.9885C163.77 36.286 169.129 34.4667 174.226 32.1611C179 29.9816 183.512 27.2437 187.609 23.9745C187.853 23.7313 188.582 23.344 188.96 23.272ZM188.519 24.1546C188.366 24.4878 188.537 24.5148 188.195 24.74C183.935 27.9012 179.36 30.6481 174.514 32.8186C169.354 35.1692 163.878 36.6372 158.375 37.9702L158.772 37.4838L158.826 52.227C158.826 52.227 158.123 51.7767 158.132 51.7767C168.453 47.0755 178.441 41.7168 187.961 35.5385L187.546 36.268C187.754 32.2242 188.222 28.2884 188.51 24.1636L188.519 24.1546Z" fill="#8E4F23"/>
<path d="M116.793 58.5496C116.316 60.6751 116.991 62.9086 118.351 64.5838C119.819 66.394 121.999 67.4658 124.079 68.4204C126.259 69.4291 128.637 70.2487 131.068 69.9245C133.671 69.5732 136.049 68.1322 138.39 67.0425C141.182 65.7456 143.992 64.5117 146.757 63.1788C147.279 62.9266 146.82 62.1611 146.307 62.4043C144.064 63.485 141.795 64.5027 139.534 65.5294C137.273 66.5561 135.121 67.79 132.806 68.5735C130.492 69.3571 128.222 69.1049 125.944 68.2403C123.953 67.4838 121.81 66.5021 120.162 65.1331C118.324 63.6021 117.109 61.1974 117.649 58.7837C117.775 58.2254 116.91 57.9822 116.784 58.5496H116.793Z" fill="#8E4F23"/>
<path d="M121.378 54.6676C120.342 55.0729 119.271 55.4331 118.262 55.9014C117.514 56.2527 116.902 56.8381 116.749 57.6757C116.425 59.5039 118.01 61.3682 119.253 62.512C120.613 63.7729 122.252 64.6735 123.954 65.394C125.962 66.2406 128.097 66.9611 130.294 67.0151C132.492 67.0692 134.671 66.3577 136.328 64.8716C136.761 64.4844 136.121 63.8539 135.698 64.2412C132.762 66.889 128.718 66.2766 125.314 64.9887C123.792 64.4123 122.306 63.7188 120.973 62.7732C119.64 61.8275 118.307 60.5216 117.767 58.9816C117.433 58.0179 117.667 57.2073 118.595 56.739C119.523 56.2707 120.613 55.9284 121.603 55.5412C122.135 55.334 121.9 54.4694 121.369 54.6766L121.378 54.6676Z" fill="#8E4F23"/>
<path d="M121.296 52.4252C120.54 54.7218 121.341 57.2345 122.827 59.0448C123.638 60.0355 124.647 60.819 125.691 61.5395C126.736 62.26 127.889 63.0255 129.06 63.647C130.231 64.2684 131.464 64.7728 132.77 64.9619C134.076 65.151 135.247 64.9979 136.463 64.6827C137.679 64.3675 138.876 63.8991 140.101 63.5569C141.488 63.1606 142.785 63.0616 144.217 63.2147C145.568 63.3588 147.009 63.4308 148.135 62.5482C149.108 61.7917 149.549 60.5128 149.27 59.315C149.144 58.7566 148.279 58.9907 148.405 59.5491C148.666 60.6749 147.982 61.8097 146.919 62.206C145.856 62.6022 144.604 62.3321 143.461 62.242C141.182 62.0709 139.084 62.9715 136.949 63.6109C135.85 63.9442 134.716 64.1964 133.563 64.1423C132.41 64.0883 131.212 63.701 130.14 63.1877C129.069 62.6743 128.06 62.0349 127.069 61.3864C126.079 60.738 125.187 60.1345 124.358 59.36C122.557 57.6758 121.359 55.1271 122.161 52.6594C122.341 52.11 121.476 51.8758 121.296 52.4252Z" fill="#8E4F23"/>
<path d="M126.456 49.4621C125.303 49.7953 124.07 49.4891 122.944 49.9664C122.061 50.3357 121.395 51.0832 121.278 52.0559C121.134 53.2177 121.755 54.2534 122.557 55.0369C123.502 55.9736 124.556 56.8382 125.583 57.6848C127.555 59.3149 129.699 60.8189 132.166 61.5845C133.391 61.9627 134.697 62.1609 135.976 62.0528C137.255 61.9447 138.462 61.5124 139.677 61.1071C141.19 60.5938 142.686 60.3146 144.289 60.2876C145.892 60.2605 147.378 60.3506 148.918 60.3956C149.494 60.4137 149.494 59.522 148.918 59.504C146.531 59.423 144.081 59.2068 141.713 59.6301C139.344 60.0534 137.246 61.3143 134.805 61.1882C132.364 61.0621 130.167 59.9453 128.231 58.5944C127.204 57.8829 126.24 57.0904 125.285 56.2708C124.457 55.5593 123.511 54.8568 122.818 54.0012C121.998 53.0105 121.863 51.5155 123.151 50.867C124.232 50.3177 125.556 50.6689 126.708 50.3357C127.258 50.1736 127.024 49.309 126.474 49.4711L126.456 49.4621Z" fill="#8E4F23"/>
<path d="M127.213 46.4453C125.718 48.3546 125.736 51.0655 127.168 53.0108C127.906 54.0105 128.888 54.767 129.861 55.5236C130.978 56.3882 132.139 57.1987 133.391 57.8652C134.535 58.4776 135.76 58.973 137.039 59.2251C138.318 59.4773 139.561 59.3152 140.875 59.108C141.767 58.973 142.569 59.027 143.451 59.054C144.136 59.081 144.802 59.027 145.487 59.081C146.171 59.1351 146.829 59.2522 147.495 59.3782C148.675 59.5944 150.233 60.1167 151.296 59.2972C152.358 58.4776 152.232 56.8655 152.061 55.6587C151.98 55.0913 151.125 55.3344 151.197 55.8928C151.323 56.8475 151.539 58.5317 150.269 58.7928C149.801 58.8919 149.305 58.7928 148.837 58.7118C148.188 58.5947 147.549 58.4686 146.901 58.3605C145.82 58.1804 144.748 58.0903 143.649 58.1354C142.947 58.1624 142.262 58.0273 141.56 58.0993C140.452 58.2164 139.353 58.5317 138.237 58.4776C137.12 58.4236 135.922 58.0543 134.868 57.586C132.734 56.6403 130.725 55.2083 128.987 53.6593C128.06 52.8307 127.276 51.84 127.042 50.5881C126.808 49.3363 127.078 48.0304 127.843 47.0667C128.195 46.6164 127.564 45.977 127.213 46.4363V46.4453Z" fill="#8E4F23"/>
<path d="M135.147 47.2377C135.66 46.6703 136.462 47.1387 137.02 47.4089C137.759 47.7691 138.488 48.1294 139.218 48.4986C140.65 49.2191 142.064 49.9666 143.478 50.7412C146.342 52.2992 149.161 53.9474 151.926 55.6766L151.764 55.0642C151.457 55.4875 150.908 55.5055 150.431 55.5055C149.8 55.5055 149.161 55.4604 148.53 55.4334C147.269 55.3704 146.009 55.2893 144.739 55.2443C142.415 55.1542 140.1 55.3794 137.804 54.839C133.823 53.9024 130.428 51.1014 128.338 47.643C128.185 47.3908 127.915 47.0216 127.969 46.7064C128.032 46.3461 128.482 46.3821 128.744 46.3731C129.41 46.3461 130.077 46.3731 130.743 46.4272C132.103 46.5443 133.427 46.8775 134.706 47.3458C135.246 47.544 135.48 46.6794 134.94 46.4812C133.643 46.0039 132.31 45.6887 130.932 45.5446C130.266 45.4815 129.599 45.4545 128.942 45.4725C128.437 45.4815 127.852 45.4725 127.447 45.8418C126.501 46.7064 127.51 48.0663 128.041 48.8499C128.726 49.8586 129.509 50.7952 130.383 51.6418C132.049 53.2539 134.039 54.5418 136.228 55.3073C137.381 55.7036 138.578 55.9288 139.794 56.0368C141.19 56.1539 142.559 56.0819 143.955 56.0999C145.621 56.1269 147.287 56.262 148.954 56.334C150.196 56.3881 151.692 56.6493 152.52 55.5055C152.664 55.3073 152.547 55.0101 152.358 54.893C149.287 52.9747 146.162 51.1555 142.973 49.4443C141.406 48.6067 139.821 47.7871 138.227 46.9946C137.137 46.4542 135.552 45.4275 134.508 46.5803C134.12 47.0036 134.751 47.643 135.138 47.2107L135.147 47.2377Z" fill="#8E4F23"/>
<path d="M153.539 28.4235C154.899 30.1617 155.89 32.1791 156.43 34.3225C156.484 34.5567 156.844 34.4576 156.79 34.2235C156.358 32.5123 155.646 30.8732 154.692 29.3961C154.412 28.9728 154.124 28.5586 153.809 28.1623C153.665 27.9732 153.404 28.2343 153.548 28.4235H153.539Z" fill="#8E4F23"/>
<path d="M153.512 30.4051C153.818 31.0536 154.115 31.702 154.422 32.3505C154.467 32.4406 154.593 32.4676 154.674 32.4135C154.764 32.3595 154.782 32.2514 154.737 32.1614C154.431 31.5129 154.133 30.8645 153.827 30.216C153.782 30.126 153.656 30.0989 153.575 30.153C153.485 30.207 153.467 30.3151 153.512 30.4051Z" fill="#8E4F23"/>
<path d="M140.092 41.6448C140.092 42.4283 140.452 43.2118 141.046 43.7252C141.218 43.8693 141.407 44.0044 141.605 44.1035C141.695 44.1485 141.812 44.1305 141.857 44.0404C141.902 43.9594 141.884 43.8333 141.794 43.7882C141.713 43.7522 141.632 43.7072 141.56 43.6531C141.524 43.6261 141.488 43.6081 141.452 43.5811C141.443 43.5811 141.434 43.5721 141.425 43.5631C141.425 43.5631 141.389 43.5361 141.407 43.5541C141.398 43.5451 141.38 43.5361 141.371 43.518C141.236 43.401 141.11 43.2749 140.992 43.1398C140.992 43.1398 140.965 43.1128 140.983 43.1218C141.001 43.1308 140.983 43.1128 140.974 43.1038C140.965 43.0857 140.947 43.0677 140.938 43.0587C140.911 43.0227 140.884 42.9777 140.857 42.9416C140.812 42.8696 140.767 42.7885 140.731 42.7165C140.713 42.6715 140.695 42.6354 140.677 42.5904C140.677 42.5814 140.677 42.5724 140.668 42.5634C140.668 42.5454 140.65 42.5184 140.641 42.5003C140.605 42.4193 140.578 42.3292 140.56 42.2392C140.551 42.1941 140.533 42.1401 140.524 42.0861C140.524 42.068 140.524 42.041 140.515 42.023C140.515 42.014 140.515 42.005 140.515 41.987C140.515 41.933 140.515 42.023 140.515 41.969C140.506 41.8699 140.497 41.7618 140.497 41.6628C140.497 41.5637 140.407 41.4736 140.308 41.4736C140.209 41.4736 140.119 41.5547 140.119 41.6628L140.092 41.6448Z" fill="#8E4F23"/>
<path d="M162.409 45.9497C162.328 46.0398 162.31 46.1748 162.382 46.2739C162.427 46.337 162.481 46.382 162.544 46.418C162.607 46.454 162.679 46.4721 162.76 46.4721C162.796 46.4721 162.841 46.4721 162.877 46.454C162.904 46.454 162.922 46.445 162.949 46.436C162.985 46.418 163.021 46.409 163.058 46.382C163.094 46.355 163.121 46.337 163.157 46.3099C163.211 46.2739 163.247 46.2289 163.283 46.1748C163.301 46.1568 163.31 46.1388 163.319 46.1118C163.337 46.0758 163.346 46.0398 163.355 46.0037C163.355 45.9767 163.355 45.9587 163.355 45.9317C163.355 45.9137 163.355 45.8957 163.355 45.8776C163.355 45.8596 163.355 45.8416 163.355 45.8236C163.355 45.7966 163.337 45.7786 163.328 45.7516C163.292 45.6705 163.202 45.6075 163.121 45.5804C163.039 45.5534 162.94 45.5714 162.85 45.5804C162.805 45.5804 162.76 45.6255 162.742 45.6615C162.715 45.6975 162.706 45.7606 162.724 45.8056C162.742 45.8506 162.769 45.8957 162.805 45.9137L162.85 45.9317C162.85 45.9317 162.913 45.9317 162.949 45.9317C162.967 45.9317 162.985 45.9317 163.003 45.9317H162.958C162.958 45.9317 163.012 45.9317 163.049 45.9317H163.003C163.003 45.9317 163.04 45.9317 163.058 45.9317L163.012 45.9137C163.012 45.9137 163.03 45.9227 163.049 45.9317L163.012 45.9047C163.012 45.9047 163.03 45.9227 163.04 45.9317L163.012 45.8957C163.012 45.8957 163.031 45.9227 163.031 45.9317L163.012 45.8866C163.012 45.8866 163.021 45.9137 163.021 45.9317V45.8866C163.021 45.8866 163.021 45.9227 163.021 45.9407V45.8957C163.021 45.8957 163.021 45.9317 163.021 45.9497L163.04 45.9047C163.04 45.9047 163.012 45.9497 162.994 45.9767L163.021 45.9407C163.021 45.9407 162.958 46.0037 162.922 46.0307L162.958 46.0037C162.958 46.0037 162.886 46.0578 162.841 46.0758L162.886 46.0578C162.886 46.0578 162.823 46.0758 162.787 46.0848H162.832C162.832 46.0848 162.778 46.0848 162.751 46.0848H162.796C162.796 46.0848 162.742 46.0848 162.715 46.0668L162.76 46.0848C162.76 46.0848 162.724 46.0668 162.706 46.0578L162.742 46.0848C162.742 46.0848 162.715 46.0578 162.697 46.0488L162.724 46.0848C162.724 46.0848 162.715 46.0668 162.706 46.0578L162.724 46.1028C162.724 46.1028 162.724 46.0848 162.724 46.0758V46.1208C162.724 46.1208 162.724 46.1118 162.724 46.1028V46.1478C162.724 46.1478 162.724 46.1478 162.724 46.1298L162.706 46.1748C162.706 46.1748 162.706 46.1748 162.706 46.1658L162.679 46.2019C162.715 46.1658 162.733 46.1208 162.733 46.0668C162.733 46.0127 162.715 45.9677 162.679 45.9317C162.643 45.8956 162.598 45.8776 162.544 45.8776C162.49 45.8776 162.445 45.8956 162.409 45.9317V45.9497Z" fill="#8E4F23"/>
<path d="M135.076 48.9131C134.995 49.0031 134.977 49.1382 135.049 49.2373C135.094 49.3003 135.148 49.3454 135.211 49.3814C135.274 49.4174 135.346 49.4354 135.427 49.4354C135.463 49.4354 135.508 49.4354 135.544 49.4174C135.571 49.4174 135.589 49.4084 135.616 49.3994C135.652 49.3814 135.688 49.3724 135.725 49.3454C135.761 49.3183 135.788 49.3003 135.824 49.2733C135.878 49.2373 135.914 49.1923 135.95 49.1382C135.968 49.1202 135.977 49.1022 135.986 49.0752C136.004 49.0392 136.013 49.0031 136.022 48.9671C136.022 48.9401 136.022 48.9221 136.022 48.8951C136.022 48.877 136.022 48.859 136.022 48.841C136.022 48.823 136.022 48.805 136.022 48.787C136.022 48.76 136.004 48.7419 135.995 48.7149C135.959 48.6339 135.869 48.5708 135.788 48.5438C135.707 48.5168 135.607 48.5348 135.517 48.5438C135.472 48.5438 135.427 48.5888 135.409 48.6249C135.382 48.6609 135.373 48.7239 135.391 48.769C135.409 48.814 135.436 48.859 135.472 48.877L135.517 48.8951C135.517 48.8951 135.58 48.8951 135.616 48.8951C135.634 48.8951 135.652 48.8951 135.67 48.8951H135.625C135.625 48.8951 135.679 48.8951 135.716 48.8951H135.67C135.67 48.8951 135.706 48.8951 135.725 48.8951L135.679 48.877C135.679 48.877 135.697 48.886 135.716 48.8951L135.679 48.868C135.679 48.868 135.697 48.886 135.706 48.8951L135.679 48.859C135.679 48.859 135.697 48.886 135.697 48.8951L135.679 48.85C135.679 48.85 135.688 48.877 135.688 48.8951V48.85C135.688 48.85 135.688 48.886 135.688 48.9041V48.859C135.688 48.859 135.688 48.8951 135.688 48.9131L135.706 48.868C135.706 48.868 135.679 48.9131 135.661 48.9401L135.688 48.9041C135.688 48.9041 135.625 48.9671 135.589 48.9941L135.625 48.9671C135.625 48.9671 135.553 49.0211 135.508 49.0392L135.553 49.0211C135.553 49.0211 135.49 49.0392 135.454 49.0482H135.499C135.499 49.0482 135.445 49.0482 135.418 49.0482H135.463C135.463 49.0482 135.409 49.0482 135.382 49.0301L135.427 49.0482C135.427 49.0482 135.391 49.0301 135.373 49.0211L135.409 49.0482C135.409 49.0482 135.382 49.0211 135.364 49.0121L135.391 49.0482C135.391 49.0482 135.382 49.0301 135.373 49.0211L135.391 49.0662C135.391 49.0662 135.391 49.0482 135.391 49.0392V49.0842C135.391 49.0842 135.391 49.0752 135.391 49.0662V49.1112C135.391 49.1112 135.391 49.1112 135.391 49.0932L135.373 49.1382C135.373 49.1382 135.373 49.1382 135.373 49.1292L135.346 49.1652C135.382 49.1292 135.4 49.0842 135.4 49.0301C135.4 48.9761 135.382 48.9311 135.346 48.8951C135.31 48.859 135.265 48.841 135.211 48.841C135.157 48.841 135.112 48.859 135.076 48.8951V48.9131Z" fill="#8E4F23"/>
<path d="M173.523 35.6916C173.523 35.6916 173.559 35.7456 173.586 35.7727C173.613 35.7997 173.64 35.8177 173.667 35.8357C173.712 35.8717 173.757 35.8897 173.802 35.9078C173.82 35.9078 173.838 35.9168 173.856 35.9258C173.892 35.9258 173.928 35.9348 173.964 35.9348C173.982 35.9348 174.009 35.9348 174.027 35.9348C174.063 35.9348 174.099 35.9348 174.126 35.9168C174.18 35.8987 174.243 35.8717 174.288 35.8357C174.307 35.8267 174.325 35.8087 174.343 35.7907C174.361 35.7727 174.37 35.7546 174.379 35.7276C174.379 35.7006 174.379 35.6826 174.379 35.6556C174.379 35.6286 174.379 35.6105 174.361 35.5835C174.334 35.5475 174.297 35.5115 174.252 35.5025H174.207C174.207 35.5025 174.144 35.5025 174.117 35.5205C174.09 35.5385 174.072 35.5565 174.045 35.5655L174.09 35.5475C174.09 35.5475 174.027 35.5655 173.991 35.5745H174.036C174.036 35.5745 173.973 35.5745 173.946 35.5745H173.991C173.991 35.5745 173.928 35.5745 173.901 35.5565L173.946 35.5745C173.946 35.5745 173.892 35.5475 173.865 35.5295L173.901 35.5565C173.901 35.5565 173.856 35.5205 173.838 35.4935L173.865 35.5295C173.865 35.5295 173.865 35.5295 173.856 35.5205C173.847 35.5025 173.829 35.4845 173.811 35.4664C173.793 35.4484 173.775 35.4394 173.748 35.4304C173.721 35.4304 173.703 35.4304 173.676 35.4304C173.649 35.4304 173.631 35.4304 173.604 35.4484C173.568 35.4755 173.532 35.5115 173.523 35.5565C173.514 35.6015 173.514 35.6556 173.541 35.7006L173.523 35.6916Z" fill="#8E4F23"/>
<path d="M124.485 63.0166C124.485 63.0166 124.521 63.0706 124.548 63.0976C124.575 63.1246 124.602 63.1426 124.629 63.1606C124.674 63.1967 124.719 63.2147 124.764 63.2327C124.782 63.2327 124.8 63.2417 124.818 63.2507C124.854 63.2507 124.89 63.2597 124.926 63.2597C124.944 63.2597 124.971 63.2597 124.989 63.2597C125.025 63.2597 125.061 63.2597 125.088 63.2417C125.142 63.2237 125.205 63.1967 125.25 63.1606C125.268 63.1516 125.286 63.1336 125.304 63.1156C125.322 63.0976 125.331 63.0796 125.34 63.0526C125.34 63.0256 125.34 63.0075 125.34 62.9805C125.34 62.9535 125.34 62.9355 125.322 62.9085C125.295 62.8725 125.259 62.8364 125.214 62.8274H125.169C125.169 62.8274 125.106 62.8274 125.079 62.8454C125.052 62.8634 125.034 62.8815 125.007 62.8905L125.052 62.8724C125.052 62.8724 124.989 62.8905 124.953 62.8995H124.998C124.998 62.8995 124.935 62.8995 124.908 62.8995H124.953C124.953 62.8995 124.89 62.8995 124.863 62.8815L124.908 62.8995C124.908 62.8995 124.854 62.8725 124.827 62.8544L124.863 62.8815C124.863 62.8815 124.818 62.8454 124.8 62.8184L124.827 62.8544C124.827 62.8544 124.827 62.8544 124.818 62.8454C124.809 62.8274 124.791 62.8094 124.773 62.7914C124.755 62.7734 124.737 62.7644 124.71 62.7554C124.683 62.7554 124.665 62.7554 124.638 62.7554C124.611 62.7554 124.593 62.7554 124.566 62.7734C124.53 62.8004 124.494 62.8364 124.485 62.8815C124.476 62.9265 124.476 62.9805 124.503 63.0256L124.485 63.0166Z" fill="#8E4F23"/>
<path d="M185.547 29.4414C185.547 29.4414 185.583 29.4954 185.61 29.5224C185.637 29.5494 185.664 29.5674 185.691 29.5855C185.737 29.6215 185.782 29.6395 185.827 29.6575C185.845 29.6575 185.863 29.6665 185.881 29.6755C185.917 29.6755 185.953 29.6845 185.989 29.6845C186.007 29.6845 186.034 29.6845 186.052 29.6845C186.088 29.6845 186.124 29.6845 186.151 29.6665C186.205 29.6485 186.268 29.6215 186.313 29.5855C186.331 29.5765 186.349 29.5584 186.367 29.5404C186.385 29.5224 186.394 29.5044 186.403 29.4774C186.403 29.4504 186.403 29.4324 186.403 29.4053C186.403 29.3783 186.403 29.3603 186.385 29.3333C186.358 29.2973 186.322 29.2612 186.277 29.2522H186.232C186.232 29.2522 186.169 29.2522 186.142 29.2702C186.115 29.2882 186.097 29.3063 186.07 29.3153L186.115 29.2973C186.115 29.2973 186.052 29.3153 186.016 29.3243H186.061C186.061 29.3243 185.998 29.3243 185.971 29.3243H186.016C186.016 29.3243 185.953 29.3243 185.926 29.3063L185.971 29.3243C185.971 29.3243 185.917 29.2973 185.89 29.2792L185.926 29.3063C185.926 29.3063 185.881 29.2702 185.863 29.2432L185.89 29.2792C185.89 29.2792 185.89 29.2792 185.881 29.2702C185.872 29.2522 185.854 29.2342 185.836 29.2162C185.818 29.1982 185.8 29.1892 185.773 29.1802C185.746 29.1802 185.728 29.1802 185.7 29.1802C185.673 29.1802 185.655 29.1802 185.628 29.1982C185.592 29.2252 185.556 29.2612 185.547 29.3063C185.538 29.3513 185.538 29.4053 185.565 29.4504L185.547 29.4414Z" fill="#8E4F23"/>
<path d="M167.795 44.7519C167.849 44.923 168.003 45.0761 168.183 45.1121C168.273 45.1302 168.372 45.1302 168.462 45.0941C168.552 45.0581 168.633 45.0131 168.696 44.932C168.732 44.887 168.75 44.851 168.777 44.8059C168.795 44.7699 168.804 44.7339 168.831 44.7069L168.804 44.7429C168.804 44.7429 168.822 44.7249 168.831 44.7159L168.795 44.7429C168.795 44.7429 168.813 44.7249 168.831 44.7249L168.786 44.7429C168.786 44.7429 168.813 44.7429 168.822 44.7339H168.777C168.777 44.7339 168.813 44.7339 168.831 44.7339H168.786C168.786 44.7339 168.822 44.7339 168.831 44.7339L168.786 44.7159C168.786 44.7159 168.84 44.7429 168.858 44.7609L168.822 44.7339C168.822 44.7339 168.876 44.7879 168.903 44.8149C168.975 44.887 169.101 44.887 169.164 44.8149C169.227 44.7429 169.236 44.6258 169.164 44.5538C169.11 44.4997 169.056 44.4457 168.993 44.4097C168.903 44.3646 168.795 44.3376 168.705 44.3736C168.615 44.4006 168.543 44.4637 168.498 44.5538C168.471 44.5988 168.453 44.6528 168.426 44.6979L168.453 44.6618C168.453 44.6618 168.408 44.7069 168.39 44.7249L168.426 44.6979C168.426 44.6979 168.381 44.7249 168.354 44.7429L168.399 44.7249C168.399 44.7249 168.345 44.7429 168.309 44.7519H168.354C168.354 44.7519 168.3 44.7519 168.273 44.7519H168.318C168.318 44.7519 168.255 44.7519 168.228 44.7339L168.273 44.7519C168.273 44.7519 168.219 44.7249 168.192 44.7069L168.228 44.7339C168.228 44.7339 168.183 44.6979 168.165 44.6708L168.192 44.7069C168.192 44.7069 168.165 44.6618 168.147 44.6348L168.165 44.6798C168.165 44.6798 168.165 44.6618 168.156 44.6528C168.138 44.6078 168.111 44.5628 168.075 44.5447C168.039 44.5177 167.976 44.5087 167.93 44.5267C167.84 44.5538 167.768 44.6528 167.804 44.7519H167.795Z" fill="#8E4F23"/>
<path d="M136.499 52.9206C136.553 53.0917 136.706 53.2448 136.886 53.2808C136.976 53.2989 137.075 53.2989 137.165 53.2628C137.255 53.2268 137.336 53.1818 137.399 53.1007C137.435 53.0557 137.453 53.0197 137.48 52.9746C137.498 52.9386 137.507 52.9026 137.534 52.8756L137.507 52.9116C137.507 52.9116 137.525 52.8936 137.534 52.8846L137.498 52.9116C137.498 52.9116 137.516 52.8936 137.534 52.8936L137.489 52.9116C137.489 52.9116 137.516 52.9116 137.525 52.9026H137.48C137.48 52.9026 137.516 52.9026 137.534 52.9026H137.489C137.489 52.9026 137.525 52.9026 137.534 52.9026L137.489 52.8846C137.489 52.8846 137.543 52.9116 137.561 52.9296L137.525 52.9026C137.525 52.9026 137.579 52.9566 137.606 52.9836C137.678 53.0557 137.804 53.0557 137.867 52.9836C137.931 52.9116 137.94 52.7945 137.867 52.7225C137.813 52.6684 137.759 52.6144 137.696 52.5784C137.606 52.5333 137.498 52.5063 137.408 52.5423C137.318 52.5693 137.246 52.6324 137.201 52.7225C137.174 52.7675 137.156 52.8215 137.129 52.8666L137.156 52.8305C137.156 52.8305 137.111 52.8756 137.093 52.8936L137.129 52.8666C137.129 52.8666 137.084 52.8936 137.057 52.9116L137.102 52.8936C137.102 52.8936 137.048 52.9116 137.012 52.9206H137.057C137.057 52.9206 137.003 52.9206 136.976 52.9206H137.021C137.021 52.9206 136.958 52.9206 136.931 52.9026L136.976 52.9206C136.976 52.9206 136.922 52.8936 136.895 52.8756L136.931 52.9026C136.931 52.9026 136.886 52.8666 136.868 52.8395L136.895 52.8756C136.895 52.8756 136.868 52.8305 136.85 52.8035L136.868 52.8485C136.868 52.8485 136.868 52.8305 136.859 52.8215C136.841 52.7765 136.814 52.7315 136.778 52.7134C136.742 52.6864 136.679 52.6774 136.634 52.6954C136.544 52.7225 136.471 52.8215 136.508 52.9206H136.499Z" fill="#8E4F23"/>
<path d="M125.827 54.2895C125.881 54.4606 126.034 54.6137 126.214 54.6497C126.304 54.6677 126.403 54.6677 126.493 54.6317C126.583 54.5957 126.664 54.5507 126.727 54.4696C126.763 54.4246 126.781 54.3886 126.808 54.3435C126.826 54.3075 126.835 54.2715 126.862 54.2445L126.835 54.2805C126.835 54.2805 126.853 54.2625 126.862 54.2535L126.826 54.2805C126.826 54.2805 126.844 54.2625 126.862 54.2625L126.817 54.2805C126.817 54.2805 126.844 54.2805 126.853 54.2715H126.808C126.808 54.2715 126.844 54.2715 126.862 54.2715H126.817C126.817 54.2715 126.853 54.2715 126.862 54.2715L126.817 54.2535C126.817 54.2535 126.871 54.2805 126.889 54.2985L126.853 54.2715C126.853 54.2715 126.907 54.3255 126.934 54.3525C127.006 54.4246 127.133 54.4246 127.196 54.3525C127.259 54.2805 127.268 54.1634 127.196 54.0914C127.142 54.0373 127.088 53.9833 127.024 53.9473C126.934 53.9022 126.826 53.8752 126.736 53.9112C126.646 53.9382 126.574 54.0013 126.529 54.0914C126.502 54.1364 126.484 54.1904 126.457 54.2355L126.484 54.1994C126.484 54.1994 126.439 54.2445 126.421 54.2625L126.457 54.2355C126.457 54.2355 126.412 54.2625 126.385 54.2805L126.43 54.2625C126.43 54.2625 126.376 54.2805 126.34 54.2895H126.385C126.385 54.2895 126.331 54.2895 126.304 54.2895H126.349C126.349 54.2895 126.286 54.2895 126.259 54.2715L126.304 54.2895C126.304 54.2895 126.25 54.2625 126.223 54.2445L126.259 54.2715C126.259 54.2715 126.214 54.2355 126.196 54.2084L126.223 54.2445C126.223 54.2445 126.196 54.1994 126.178 54.1724L126.196 54.2174C126.196 54.2174 126.196 54.1994 126.187 54.1904C126.169 54.1454 126.142 54.1004 126.106 54.0823C126.07 54.0553 126.007 54.0463 125.962 54.0643C125.872 54.0914 125.8 54.1904 125.836 54.2895H125.827Z" fill="#8E4F23"/>
<path d="M165.859 39.1138C165.859 39.1138 165.823 39.1588 165.814 39.1769C165.796 39.2039 165.787 39.2309 165.778 39.2579C165.76 39.2939 165.76 39.339 165.751 39.375C165.742 39.411 165.751 39.456 165.76 39.5011C165.769 39.5461 165.787 39.5821 165.805 39.6182C165.823 39.6542 165.85 39.6902 165.877 39.7172C165.904 39.7442 165.94 39.7713 165.976 39.7983C166.012 39.8253 166.057 39.8433 166.093 39.8523C166.12 39.8613 166.147 39.8703 166.174 39.8703C166.219 39.8703 166.255 39.8793 166.3 39.8793C166.345 39.8793 166.39 39.8793 166.426 39.8613C166.489 39.8433 166.552 39.8163 166.606 39.7713C166.642 39.7442 166.669 39.7172 166.705 39.6902C166.741 39.6632 166.759 39.6272 166.778 39.5911C166.796 39.5551 166.814 39.5191 166.832 39.4831C166.841 39.456 166.85 39.429 166.85 39.402C166.85 39.375 166.859 39.339 166.859 39.3119C166.859 39.2849 166.859 39.2489 166.85 39.2129C166.85 39.1949 166.85 39.1769 166.832 39.1588C166.823 39.1318 166.814 39.0958 166.796 39.0778C166.778 39.0598 166.76 39.0237 166.732 39.0057C166.705 38.9877 166.687 38.9697 166.66 38.9517C166.606 38.9247 166.543 38.9067 166.48 38.9157C166.453 38.9157 166.435 38.9157 166.408 38.9337C166.381 38.9337 166.363 38.9517 166.345 38.9697C166.309 39.0057 166.291 39.0508 166.291 39.1048C166.291 39.1588 166.309 39.2039 166.345 39.2399C166.381 39.2669 166.426 39.3029 166.48 39.2939C166.489 39.2939 166.507 39.2939 166.516 39.2939H166.471C166.471 39.2939 166.498 39.2939 166.507 39.2939L166.462 39.2759C166.462 39.2759 166.489 39.2939 166.498 39.3029L166.462 39.2759C166.462 39.2759 166.48 39.2939 166.489 39.3029L166.462 39.2669C166.462 39.2669 166.48 39.2939 166.489 39.3119L166.471 39.2669C166.471 39.2669 166.489 39.3119 166.489 39.33V39.2849C166.489 39.2849 166.489 39.339 166.489 39.366V39.321C166.489 39.321 166.489 39.384 166.471 39.411L166.489 39.366C166.489 39.366 166.462 39.429 166.435 39.456L166.462 39.42C166.462 39.42 166.417 39.4741 166.39 39.4921L166.426 39.4651C166.426 39.4651 166.363 39.5101 166.327 39.5191L166.372 39.5011C166.372 39.5011 166.309 39.5191 166.273 39.5281H166.318C166.318 39.5281 166.246 39.5281 166.21 39.5281H166.255C166.255 39.5281 166.192 39.5281 166.156 39.5101L166.201 39.5281C166.201 39.5281 166.147 39.5011 166.129 39.4831L166.165 39.5101C166.165 39.5101 166.129 39.4741 166.111 39.456L166.138 39.4921C166.138 39.4921 166.111 39.456 166.102 39.429L166.12 39.4741C166.12 39.4741 166.102 39.429 166.102 39.402V39.447C166.102 39.447 166.102 39.393 166.102 39.366V39.411C166.102 39.411 166.102 39.366 166.111 39.348L166.093 39.393C166.093 39.393 166.111 39.357 166.12 39.348L166.093 39.384C166.129 39.348 166.147 39.3029 166.147 39.2489C166.147 39.2039 166.129 39.1498 166.093 39.1138C166.057 39.0778 166.012 39.0598 165.958 39.0598C165.913 39.0598 165.859 39.0778 165.823 39.1138H165.859Z" fill="#8E4F23"/>
<path d="M143.991 52.7317C143.991 52.7317 143.955 52.7768 143.946 52.7948C143.928 52.8218 143.919 52.8488 143.91 52.8758C143.892 52.9119 143.892 52.9569 143.883 52.9929C143.874 53.0289 143.883 53.074 143.892 53.119C143.901 53.164 143.919 53.2001 143.937 53.2361C143.955 53.2721 143.982 53.3081 144.009 53.3351C144.036 53.3622 144.072 53.3892 144.108 53.4162C144.144 53.4432 144.189 53.4612 144.225 53.4702C144.252 53.4792 144.279 53.4883 144.306 53.4883C144.351 53.4883 144.387 53.4973 144.432 53.4973C144.477 53.4973 144.522 53.4973 144.558 53.4792C144.621 53.4612 144.684 53.4342 144.738 53.3892C144.774 53.3622 144.801 53.3351 144.837 53.3081C144.873 53.2811 144.891 53.2451 144.909 53.2091C144.927 53.173 144.945 53.137 144.963 53.101C144.972 53.074 144.981 53.0469 144.981 53.0199C144.981 52.9929 144.99 52.9569 144.99 52.9299C144.99 52.9028 144.99 52.8668 144.981 52.8308C144.981 52.8128 144.981 52.7948 144.963 52.7768C144.954 52.7497 144.945 52.7137 144.927 52.6957C144.909 52.6777 144.891 52.6417 144.864 52.6237C144.837 52.6056 144.819 52.5876 144.792 52.5696C144.738 52.5426 144.675 52.5246 144.612 52.5336C144.585 52.5336 144.567 52.5336 144.54 52.5516C144.513 52.5516 144.495 52.5696 144.477 52.5876C144.441 52.6237 144.423 52.6687 144.423 52.7227C144.423 52.7768 144.441 52.8218 144.477 52.8578C144.513 52.8848 144.558 52.9209 144.612 52.9119C144.621 52.9119 144.639 52.9119 144.648 52.9119H144.603C144.603 52.9119 144.63 52.9119 144.639 52.9119L144.594 52.8938C144.594 52.8938 144.621 52.9119 144.63 52.9209L144.594 52.8938C144.594 52.8938 144.612 52.9119 144.621 52.9209L144.594 52.8848C144.594 52.8848 144.612 52.9119 144.621 52.9299L144.603 52.8848C144.603 52.8848 144.621 52.9299 144.621 52.9479V52.9028C144.621 52.9028 144.621 52.9569 144.621 52.9839V52.9389C144.621 52.9389 144.621 53.0019 144.603 53.0289L144.621 52.9839C144.621 52.9839 144.594 53.0469 144.567 53.074L144.594 53.0379C144.594 53.0379 144.549 53.092 144.522 53.11L144.558 53.083C144.558 53.083 144.495 53.128 144.459 53.137L144.504 53.119C144.504 53.119 144.441 53.137 144.405 53.146H144.45C144.45 53.146 144.378 53.146 144.342 53.146H144.387C144.387 53.146 144.324 53.146 144.288 53.128L144.333 53.146C144.333 53.146 144.279 53.119 144.261 53.101L144.297 53.128C144.297 53.128 144.261 53.092 144.243 53.074L144.27 53.11C144.27 53.11 144.243 53.074 144.234 53.0469L144.252 53.092C144.252 53.092 144.234 53.0469 144.234 53.0199V53.065C144.234 53.065 144.234 53.0109 144.234 52.9839V53.0289C144.234 53.0289 144.234 52.9839 144.243 52.9659L144.225 53.0109C144.225 53.0109 144.243 52.9749 144.252 52.9659L144.225 53.0019C144.261 52.9659 144.279 52.9209 144.279 52.8668C144.279 52.8218 144.261 52.7678 144.225 52.7317C144.189 52.6957 144.144 52.6777 144.09 52.6777C144.045 52.6777 143.991 52.6957 143.955 52.7317H143.991Z" fill="#8E4F23"/>
<path d="M130.987 58.3787C130.987 58.3787 130.951 58.4237 130.942 58.4417C130.924 58.4688 130.915 58.4958 130.906 58.5228C130.888 58.5588 130.888 58.6039 130.879 58.6399C130.87 58.6759 130.879 58.7209 130.888 58.766C130.897 58.811 130.915 58.847 130.933 58.8831C130.951 58.9191 130.978 58.9551 131.005 58.9821C131.032 59.0091 131.068 59.0362 131.104 59.0632C131.14 59.0902 131.185 59.1082 131.221 59.1172C131.248 59.1262 131.275 59.1352 131.302 59.1352C131.347 59.1352 131.383 59.1442 131.428 59.1442C131.473 59.1442 131.518 59.1442 131.554 59.1262C131.617 59.1082 131.68 59.0812 131.734 59.0362C131.77 59.0091 131.797 58.9821 131.833 58.9551C131.869 58.9281 131.887 58.8921 131.905 58.856C131.923 58.82 131.941 58.784 131.959 58.748C131.968 58.7209 131.977 58.6939 131.977 58.6669C131.977 58.6399 131.987 58.6039 131.987 58.5768C131.987 58.5498 131.986 58.5138 131.977 58.4778C131.977 58.4598 131.978 58.4417 131.959 58.4237C131.95 58.3967 131.941 58.3607 131.923 58.3427C131.905 58.3247 131.887 58.2886 131.86 58.2706C131.833 58.2526 131.815 58.2346 131.788 58.2166C131.734 58.1896 131.671 58.1716 131.608 58.1806C131.581 58.1806 131.563 58.1806 131.536 58.1986C131.509 58.1986 131.491 58.2166 131.473 58.2346C131.437 58.2706 131.419 58.3157 131.419 58.3697C131.419 58.4237 131.437 58.4688 131.473 58.5048C131.509 58.5318 131.554 58.5678 131.608 58.5588C131.617 58.5588 131.635 58.5588 131.644 58.5588H131.599C131.599 58.5588 131.626 58.5588 131.635 58.5588L131.59 58.5408C131.59 58.5408 131.617 58.5588 131.626 58.5678L131.59 58.5408C131.59 58.5408 131.608 58.5588 131.617 58.5678L131.59 58.5318C131.59 58.5318 131.608 58.5588 131.617 58.5768L131.599 58.5318C131.599 58.5318 131.617 58.5768 131.617 58.5949V58.5498C131.617 58.5498 131.617 58.6039 131.617 58.6309V58.5858C131.617 58.5858 131.617 58.6489 131.599 58.6759L131.617 58.6309C131.617 58.6309 131.59 58.6939 131.563 58.7209L131.59 58.6849C131.59 58.6849 131.545 58.739 131.518 58.757L131.554 58.7299C131.554 58.7299 131.491 58.775 131.455 58.784L131.5 58.766C131.5 58.766 131.437 58.784 131.401 58.793H131.446C131.446 58.793 131.374 58.793 131.338 58.793H131.383C131.383 58.793 131.32 58.793 131.284 58.775L131.329 58.793C131.329 58.793 131.275 58.766 131.257 58.748L131.293 58.775C131.293 58.775 131.257 58.739 131.239 58.7209L131.266 58.757C131.266 58.757 131.239 58.7209 131.23 58.6939L131.248 58.739C131.248 58.739 131.23 58.6939 131.23 58.6669V58.7119C131.23 58.7119 131.23 58.6579 131.23 58.6309V58.6759C131.23 58.6759 131.23 58.6309 131.239 58.6129L131.221 58.6579C131.221 58.6579 131.239 58.6219 131.248 58.6129L131.221 58.6489C131.257 58.6129 131.275 58.5678 131.275 58.5138C131.275 58.4688 131.257 58.4147 131.221 58.3787C131.185 58.3427 131.14 58.3247 131.086 58.3247C131.041 58.3247 130.987 58.3427 130.951 58.3787H130.987Z" fill="#8E4F23"/>
<path d="M175.451 40.5461H175.424C175.424 40.5461 175.406 40.5461 175.397 40.5461C175.388 40.5461 175.361 40.5461 175.343 40.5461C175.334 40.5461 175.307 40.5641 175.298 40.5641C175.298 40.5641 175.271 40.5821 175.262 40.5911L175.244 40.6091C175.244 40.6091 175.235 40.6271 175.226 40.6271C175.226 40.6271 175.217 40.6451 175.217 40.6541C175.217 40.6631 175.217 40.6721 175.208 40.6812C175.208 40.6902 175.208 40.7172 175.208 40.7352V40.7802C175.208 40.7892 175.226 40.8162 175.226 40.8253L175.244 40.8433C175.244 40.8433 175.253 40.8613 175.262 40.8613C175.262 40.8613 175.28 40.8793 175.289 40.8793C175.298 40.8793 175.307 40.8973 175.325 40.9063C175.343 40.9153 175.361 40.9243 175.388 40.9333C175.397 40.9333 175.415 40.9423 175.424 40.9513C175.424 40.9513 175.433 40.9513 175.442 40.9513C175.46 40.9513 175.487 40.9513 175.505 40.9513C175.505 40.9513 175.514 40.9513 175.523 40.9513C175.541 40.9513 175.568 40.9513 175.586 40.9513C175.604 40.9513 175.613 40.9423 175.631 40.9333C175.649 40.9243 175.658 40.9243 175.667 40.9153C175.685 40.9063 175.694 40.8973 175.712 40.8793C175.712 40.8793 175.712 40.8703 175.721 40.8613L175.685 40.8883L175.64 40.9063H175.595H175.55L175.505 40.8883C175.505 40.8883 175.523 40.8883 175.523 40.8973C175.541 40.8973 175.559 40.9153 175.568 40.9153C175.568 40.9153 175.604 40.9153 175.613 40.9153C175.622 40.9153 175.631 40.9153 175.64 40.9153C175.667 40.9153 175.667 40.9153 175.694 40.8973C175.703 40.8973 175.712 40.8973 175.721 40.8883L175.757 40.8613L175.775 40.8433C175.793 40.8162 175.784 40.8253 175.802 40.7982C175.82 40.7712 175.811 40.7802 175.811 40.7532C175.811 40.7532 175.811 40.7352 175.811 40.7262C175.811 40.6992 175.811 40.6812 175.793 40.6541C175.793 40.6271 175.775 40.6091 175.757 40.5911C175.739 40.5731 175.721 40.5641 175.694 40.5551C175.676 40.5461 175.649 40.5371 175.622 40.5371H175.577C175.577 40.5371 175.514 40.5641 175.496 40.5911L175.469 40.6271C175.469 40.6271 175.442 40.6902 175.442 40.7172V40.6721L175.46 40.6271C175.46 40.6271 175.478 40.6001 175.487 40.5911L175.523 40.5641L175.568 40.5461H175.613H175.658L175.703 40.5641C175.703 40.5641 175.685 40.5551 175.676 40.5461C175.676 40.5461 175.649 40.528 175.631 40.528C175.622 40.528 175.613 40.528 175.604 40.528C175.595 40.528 175.586 40.528 175.577 40.528C175.577 40.528 175.559 40.528 175.55 40.528C175.541 40.528 175.532 40.528 175.523 40.528C175.505 40.528 175.487 40.5371 175.478 40.5461C175.478 40.5461 175.46 40.5551 175.46 40.5641C175.46 40.5641 175.451 40.5731 175.442 40.5821C175.442 40.5821 175.433 40.5911 175.424 40.6001L175.46 40.5731C175.46 40.5731 175.451 40.5731 175.442 40.5821L175.487 40.5641C175.487 40.5641 175.469 40.5641 175.46 40.5641H175.505C175.505 40.5641 175.478 40.5641 175.469 40.5641H175.514C175.514 40.5641 175.469 40.5641 175.451 40.5461L175.496 40.5641C175.496 40.5641 175.478 40.5641 175.469 40.5461L175.505 40.5731L175.532 40.6091C175.532 40.6091 175.532 40.6091 175.532 40.6001L175.55 40.6451V40.6902V40.7352L175.532 40.7802L175.505 40.8163L175.469 40.8433C175.469 40.8433 175.469 40.8433 175.478 40.8433L175.433 40.8613C175.433 40.8613 175.433 40.8613 175.442 40.8613H175.397C175.397 40.8613 175.397 40.8613 175.406 40.8613H175.361C175.361 40.8613 175.361 40.8613 175.37 40.8613C175.397 40.8613 175.415 40.8613 175.442 40.8613C175.469 40.8613 175.487 40.8613 175.514 40.8433C175.532 40.8343 175.55 40.8163 175.568 40.7982C175.586 40.7802 175.595 40.7622 175.604 40.7352V40.6902C175.604 40.6902 175.604 40.6271 175.586 40.6001L175.559 40.5641C175.559 40.5641 175.505 40.528 175.478 40.519L175.451 40.5461Z" fill="#8E4F23"/>
<path d="M171.271 38.997C171.244 39.042 171.235 39.0961 171.235 39.1501C171.235 39.2041 171.253 39.2582 171.28 39.3032C171.325 39.3663 171.388 39.4203 171.451 39.4563C171.578 39.5194 171.722 39.5554 171.857 39.5374C171.893 39.5374 171.938 39.5284 171.974 39.5194C172.01 39.5104 172.055 39.4923 172.091 39.4743C172.154 39.4473 172.199 39.4113 172.253 39.3663C172.307 39.3212 172.343 39.2762 172.379 39.2222C172.415 39.1681 172.451 39.1051 172.469 39.042C172.505 38.934 172.469 38.7989 172.388 38.7268C172.343 38.6908 172.298 38.6638 172.235 38.6548C172.19 38.6458 172.145 38.6458 172.091 38.6368C172.037 38.6277 171.992 38.6548 171.956 38.6908C171.92 38.7268 171.902 38.7718 171.902 38.8259C171.902 38.925 171.983 39.006 172.091 39.015C172.118 39.015 172.136 39.015 172.163 39.015H172.118C172.118 39.015 172.154 39.015 172.172 39.015L172.127 38.997C172.127 38.997 172.154 39.006 172.163 39.015L172.127 38.988C172.127 38.988 172.145 39.006 172.154 39.006L172.127 38.97C172.127 38.97 172.136 38.988 172.145 38.997L172.127 38.952V38.97V38.925C172.127 38.925 172.127 38.952 172.127 38.961V38.9159C172.127 38.9159 172.127 38.952 172.118 38.97L172.136 38.925C172.136 38.925 172.091 39.006 172.064 39.042L172.091 39.006C172.091 39.006 172.028 39.0781 171.992 39.1051L172.028 39.0781C172.028 39.0781 171.956 39.1321 171.911 39.1501L171.956 39.1321C171.956 39.1321 171.866 39.1591 171.821 39.1681H171.866C171.821 39.1681 171.767 39.1681 171.722 39.1681H171.767C171.722 39.1681 171.677 39.1591 171.632 39.1411L171.677 39.1591C171.677 39.1591 171.614 39.1321 171.587 39.1051L171.623 39.1321C171.623 39.1321 171.596 39.1051 171.578 39.0871L171.605 39.1231C171.605 39.1231 171.587 39.0961 171.587 39.0871L171.605 39.1321C171.605 39.1321 171.605 39.1051 171.596 39.0961V39.1411C171.596 39.1411 171.596 39.1231 171.596 39.1051V39.1501C171.596 39.1501 171.596 39.1321 171.596 39.1231L171.578 39.1681C171.596 39.1141 171.614 39.0691 171.596 39.015C171.587 38.97 171.551 38.925 171.515 38.9069C171.47 38.8799 171.415 38.8709 171.37 38.8889C171.325 38.9069 171.28 38.934 171.262 38.97L171.271 38.997Z" fill="#8E4F23"/>
<path d="M120.675 59.5673C120.648 59.6124 120.639 59.6664 120.639 59.7204C120.639 59.7745 120.657 59.8285 120.684 59.8735C120.729 59.9366 120.792 59.9906 120.855 60.0266C120.981 60.0897 121.125 60.1257 121.26 60.1077C121.296 60.1077 121.341 60.0987 121.377 60.0897C121.413 60.0807 121.458 60.0627 121.494 60.0446C121.557 60.0176 121.602 59.9816 121.656 59.9366C121.71 59.8915 121.746 59.8465 121.782 59.7925C121.818 59.7384 121.855 59.6754 121.873 59.6123C121.909 59.5043 121.873 59.3692 121.791 59.2971C121.746 59.2611 121.701 59.2341 121.638 59.2251C121.593 59.2161 121.548 59.2161 121.494 59.2071C121.44 59.1981 121.395 59.2251 121.359 59.2611C121.323 59.2971 121.305 59.3422 121.305 59.3962C121.305 59.4953 121.386 59.5763 121.494 59.5853C121.521 59.5853 121.539 59.5853 121.566 59.5853H121.521C121.521 59.5853 121.557 59.5853 121.575 59.5853L121.53 59.5673C121.53 59.5673 121.557 59.5763 121.566 59.5853L121.53 59.5583C121.53 59.5583 121.548 59.5763 121.557 59.5763L121.53 59.5403C121.53 59.5403 121.539 59.5583 121.548 59.5673L121.53 59.5223V59.5403V59.4953C121.53 59.4953 121.53 59.5223 121.53 59.5313V59.4863C121.53 59.4863 121.53 59.5223 121.521 59.5403L121.539 59.4953C121.539 59.4953 121.494 59.5763 121.467 59.6123L121.494 59.5763C121.494 59.5763 121.431 59.6484 121.395 59.6754L121.431 59.6484C121.431 59.6484 121.359 59.7024 121.314 59.7204L121.359 59.7024C121.359 59.7024 121.269 59.7294 121.224 59.7384H121.269C121.224 59.7384 121.17 59.7384 121.125 59.7384H121.17C121.125 59.7384 121.08 59.7294 121.035 59.7114L121.08 59.7294C121.08 59.7294 121.017 59.7024 120.99 59.6754L121.026 59.7024C121.026 59.7024 120.999 59.6754 120.981 59.6574L121.008 59.6934C121.008 59.6934 120.99 59.6664 120.99 59.6574L121.008 59.7024C121.008 59.7024 121.008 59.6754 120.999 59.6664V59.7114C120.999 59.7114 120.999 59.6934 120.999 59.6754V59.7204C120.999 59.7204 120.999 59.7024 120.999 59.6934L120.981 59.7384C120.999 59.6844 121.017 59.6394 120.999 59.5853C120.99 59.5403 120.954 59.4953 120.918 59.4773C120.873 59.4502 120.819 59.4412 120.774 59.4592C120.729 59.4773 120.684 59.5043 120.666 59.5403L120.675 59.5673Z" fill="#8E4F23"/>
<path d="M178.774 36.9344C178.675 37.0335 178.639 37.1866 178.675 37.3217C178.693 37.3847 178.729 37.4478 178.774 37.5018C178.828 37.5558 178.891 37.5919 178.954 37.6099C178.972 37.6099 178.999 37.6189 179.017 37.6279C179.053 37.6279 179.089 37.6369 179.125 37.6369C179.161 37.6369 179.197 37.6369 179.233 37.6189C179.269 37.6009 179.305 37.5919 179.332 37.5829C179.386 37.5558 179.431 37.5198 179.476 37.4838C179.521 37.4478 179.557 37.3937 179.593 37.3487C179.611 37.3307 179.62 37.3037 179.638 37.2766C179.656 37.2406 179.674 37.1956 179.683 37.1506C179.683 37.1235 179.692 37.0965 179.683 37.0695C179.674 37.0425 179.683 37.0155 179.674 36.9885C179.674 36.9704 179.656 36.9524 179.647 36.9344C179.647 36.9344 179.647 36.9254 179.638 36.9164C179.62 36.8984 179.611 36.8714 179.584 36.8534C179.566 36.8353 179.548 36.8263 179.521 36.8173C179.503 36.8083 179.476 36.7993 179.449 36.7993C179.404 36.7993 179.35 36.8173 179.314 36.8534C179.278 36.8894 179.26 36.9344 179.26 36.9885C179.26 37.0335 179.278 37.0875 179.314 37.1235C179.314 37.1235 179.323 37.1325 179.332 37.1416L179.305 37.1055C179.305 37.1055 179.314 37.1235 179.314 37.1325L179.296 37.0875C179.296 37.0875 179.296 37.1145 179.305 37.1235V37.0785C179.305 37.0785 179.305 37.1055 179.305 37.1235V37.0785C179.305 37.0785 179.305 37.1145 179.296 37.1325L179.314 37.0875C179.314 37.0875 179.269 37.1686 179.242 37.2046L179.269 37.1686C179.269 37.1686 179.215 37.2316 179.179 37.2676L179.215 37.2406C179.215 37.2406 179.152 37.2857 179.125 37.2947L179.17 37.2766C179.17 37.2766 179.116 37.2947 179.089 37.3037H179.134C179.134 37.3037 179.071 37.3037 179.044 37.3037H179.089C179.089 37.3037 179.035 37.3037 179.008 37.2857L179.053 37.3037C179.053 37.3037 179.017 37.2857 178.999 37.2676L179.035 37.2947C179.035 37.2947 179.008 37.2676 178.999 37.2586L179.026 37.2947C179.026 37.2947 179.008 37.2586 178.999 37.2406L179.017 37.2857C179.017 37.2857 178.999 37.2406 178.999 37.2226V37.2676C178.999 37.2676 178.999 37.2226 178.999 37.2046V37.2496C178.999 37.2496 178.999 37.2136 178.999 37.1956L178.981 37.2406C178.981 37.2406 178.99 37.2136 178.999 37.2046L178.972 37.2406C178.972 37.2406 178.981 37.2226 178.99 37.2226C179.026 37.1866 179.044 37.1416 179.044 37.0875C179.044 37.0335 179.026 36.9884 178.99 36.9524C178.954 36.9164 178.909 36.8984 178.855 36.8984C178.801 36.8984 178.756 36.9164 178.72 36.9524L178.774 36.9344Z" fill="#8E4F23"/>
<path d="M181.295 31.9092C181.295 31.9092 181.241 31.9722 181.223 32.0082C181.205 32.0443 181.187 32.0803 181.178 32.1163C181.16 32.1884 181.16 32.2784 181.178 32.3505C181.196 32.4225 181.241 32.4946 181.295 32.5396C181.349 32.5846 181.421 32.6297 181.502 32.6387C181.538 32.6387 181.583 32.6477 181.619 32.6477C181.655 32.6477 181.7 32.6477 181.736 32.6297C181.772 32.6117 181.808 32.6026 181.844 32.5936C181.871 32.5846 181.889 32.5756 181.907 32.5576C181.97 32.5126 182.024 32.4585 182.069 32.3955C182.078 32.3775 182.087 32.3595 182.096 32.3415C182.105 32.3234 182.114 32.3054 182.114 32.2874C182.114 32.2784 182.114 32.2604 182.114 32.2514C182.114 32.2244 182.114 32.1974 182.114 32.1703C182.114 31.9992 181.997 31.8281 181.826 31.7831C181.781 31.7741 181.727 31.7831 181.682 31.8011C181.646 31.8191 181.61 31.8641 181.601 31.9092C181.592 31.9542 181.601 32.0082 181.619 32.0533C181.637 32.0983 181.682 32.1253 181.727 32.1343C181.736 32.1343 181.745 32.1343 181.754 32.1433L181.709 32.1253C181.709 32.1253 181.736 32.1433 181.754 32.1523L181.718 32.1253C181.718 32.1253 181.745 32.1523 181.754 32.1613L181.727 32.1253C181.727 32.1253 181.754 32.1613 181.754 32.1794L181.736 32.1343C181.736 32.1343 181.745 32.1703 181.754 32.1884V32.1433C181.754 32.1433 181.754 32.1884 181.754 32.2064V32.1613C181.754 32.1613 181.754 32.2064 181.745 32.2334L181.763 32.1884C181.763 32.1884 181.736 32.2334 181.727 32.2514L181.754 32.2154C181.754 32.2154 181.718 32.2514 181.7 32.2694L181.736 32.2424C181.736 32.2424 181.682 32.2784 181.655 32.2874L181.7 32.2694C181.7 32.2694 181.637 32.2964 181.601 32.2964H181.646C181.646 32.2964 181.583 32.2964 181.547 32.2964H181.592C181.592 32.2964 181.547 32.2964 181.52 32.2874L181.565 32.3054C181.565 32.3054 181.529 32.2874 181.511 32.2784L181.547 32.3054C181.547 32.3054 181.52 32.2784 181.511 32.2694L181.538 32.3054C181.538 32.3054 181.52 32.2694 181.511 32.2514L181.529 32.2964C181.529 32.2964 181.511 32.2514 181.511 32.2244V32.2694C181.511 32.2694 181.511 32.2244 181.511 32.1974V32.2424C181.511 32.2424 181.511 32.1884 181.529 32.1613L181.511 32.2064C181.511 32.2064 181.538 32.1523 181.556 32.1343L181.529 32.1703C181.529 32.1703 181.556 32.1253 181.565 32.1073C181.574 32.0893 181.583 32.0623 181.583 32.0353C181.583 31.9902 181.565 31.9362 181.529 31.9002C181.493 31.8641 181.448 31.8461 181.394 31.8461C181.349 31.8461 181.295 31.8641 181.259 31.9002L181.295 31.9092Z" fill="#8E4F23"/>
<path d="M129.123 46.5802C128.997 46.5622 128.88 46.5982 128.79 46.6793C128.7 46.7604 128.655 46.8774 128.646 46.9855C128.61 47.2107 128.646 47.4538 128.736 47.67C128.781 47.7961 128.844 47.9041 128.925 48.0122C128.961 48.0573 129.015 48.0843 129.069 48.0482C129.114 48.0212 129.141 47.9492 129.105 47.9041C129.042 47.8231 128.997 47.742 128.952 47.652C128.952 47.643 128.952 47.634 128.943 47.625C128.943 47.625 128.943 47.6159 128.943 47.6069C128.934 47.5799 128.925 47.5619 128.916 47.5349C128.898 47.4899 128.889 47.4448 128.88 47.3908C128.88 47.3728 128.88 47.3458 128.871 47.3277V47.3097C128.871 47.2917 128.871 47.2827 128.871 47.2737C128.871 47.2287 128.871 47.1746 128.871 47.1296C128.871 47.1026 128.871 47.0846 128.871 47.0576C128.871 47.0576 128.871 47.0305 128.871 47.0395C128.871 47.0215 128.871 47.0125 128.871 46.9945C128.871 46.9675 128.88 46.9495 128.889 46.9315C128.889 46.9315 128.889 46.9225 128.889 46.9135C128.889 46.9045 128.898 46.8864 128.907 46.8774C128.907 46.8774 128.925 46.8504 128.907 46.8594C128.907 46.8504 128.925 46.8414 128.934 46.8324C128.934 46.8324 128.934 46.8324 128.943 46.8234C128.943 46.8234 128.952 46.8234 128.961 46.8144C128.961 46.8144 128.988 46.8054 128.97 46.8144C128.979 46.8144 128.997 46.8144 129.006 46.8054C128.988 46.8054 129.015 46.8054 129.024 46.8054C129.024 46.8054 129.033 46.8054 129.042 46.8054C129.096 46.8144 129.159 46.7874 129.168 46.7333C129.177 46.6793 129.15 46.6163 129.096 46.6072L129.123 46.5802Z" fill="#8E4F23"/>
</svg>
