<svg width="53" height="40" viewBox="0 0 53 40" fill="none" xmlns="http://www.w3.org/2000/svg">
<path d="M0 6.625C0 4.86794 0.697989 3.18285 1.94042 1.94042C3.18285 0.697989 4.86794 0 6.625 0H46.375C48.1321 0 49.8172 0.697989 51.0596 1.94042C52.302 3.18285 53 4.86794 53 6.625V33.125C53 34.8821 52.302 36.5672 51.0596 37.8096C49.8172 39.052 48.1321 39.75 46.375 39.75H6.625C4.86794 39.75 3.18285 39.052 1.94042 37.8096C0.697989 36.5672 0 34.8821 0 33.125V6.625ZM6.625 3.3125C5.74647 3.3125 4.90392 3.66149 4.28271 4.28271C3.66149 4.90392 3.3125 5.74647 3.3125 6.625V7.34381L26.5 21.2563L49.6875 7.34381V6.625C49.6875 5.74647 49.3385 4.90392 48.7173 4.28271C48.0961 3.66149 47.2535 3.3125 46.375 3.3125H6.625ZM49.6875 11.2062L34.0923 20.564L49.6875 30.1603V11.2062ZM49.5749 33.9829L30.8924 22.4853L26.5 25.1187L22.1076 22.4853L3.42513 33.9796C3.61336 34.6845 4.02905 35.3075 4.60765 35.752C5.18626 36.1964 5.89541 36.4374 6.625 36.4375H46.375C47.1042 36.4376 47.813 36.1971 48.3915 35.7533C48.9701 35.3095 49.386 34.6872 49.5749 33.9829ZM3.3125 30.1603L18.9078 20.564L3.3125 11.2062V30.1603Z" fill="white"/>
</svg>
