<svg width="59" height="59" viewBox="0 0 59 59" fill="none" xmlns="http://www.w3.org/2000/svg">
<g clip-path="url(#clip0_44_272)">
<path d="M29.5 0C21.4944 0 20.4878 0.036875 17.3423 0.177C14.1969 0.3245 12.0544 0.818625 10.1775 1.54875C8.2078 2.28745 6.42415 3.44928 4.95231 4.95231C3.44928 6.42415 2.28745 8.2078 1.54875 10.1775C0.818625 12.0507 0.320812 14.1969 0.177 17.3312C0.036875 20.4841 0 21.4871 0 29.5037C0 37.5129 0.036875 38.5159 0.177 41.6614C0.3245 44.8031 0.818625 46.9456 1.54875 48.8225C2.30469 50.7621 3.31138 52.4067 4.95231 54.0477C6.58956 55.6886 8.23419 56.699 10.1738 57.4512C12.0544 58.1814 14.1932 58.6792 17.3349 58.823C20.4841 58.9631 21.4871 59 29.5 59C37.5129 59 38.5123 58.9631 41.6614 58.823C44.7994 58.6755 46.9492 58.1814 48.8262 57.4512C50.7946 56.7121 52.5769 55.5503 54.0477 54.0477C55.6886 52.4067 56.6953 50.7621 57.4512 48.8225C58.1777 46.9456 58.6755 44.8031 58.823 41.6614C58.9631 38.5159 59 37.5129 59 29.5C59 21.4871 58.9631 20.4841 58.823 17.3349C58.6755 14.1969 58.1777 12.0507 57.4512 10.1775C56.7125 8.2078 55.5507 6.42415 54.0477 4.95231C52.5759 3.44928 50.7922 2.28745 48.8225 1.54875C46.9419 0.818625 44.7957 0.320812 41.6577 0.177C38.5086 0.036875 37.5093 0 29.4926 0H29.5ZM26.8561 5.31738H29.5037C37.3802 5.31738 38.3131 5.34319 41.4217 5.487C44.2979 5.61606 45.8614 6.09912 46.9013 6.50106C48.2767 7.03575 49.2613 7.67737 50.2938 8.70988C51.3263 9.74238 51.9643 10.7233 52.4989 12.1024C52.9046 13.1386 53.3839 14.7021 53.513 17.5783C53.6568 20.6869 53.6863 21.6198 53.6863 29.4926C53.6863 37.3654 53.6568 38.3021 53.513 41.4106C53.3839 44.2869 52.9009 45.8467 52.4989 46.8866C52.0226 48.1658 51.2682 49.3232 50.2901 50.2754C49.2576 51.3079 48.2768 51.9458 46.8976 52.4805C45.8651 52.8861 44.3016 53.3655 41.4217 53.4983C38.3131 53.6384 37.3802 53.6716 29.5037 53.6716C21.6272 53.6716 20.6906 53.6384 17.582 53.4983C14.7058 53.3655 13.1459 52.8861 12.1061 52.4805C10.8259 52.0058 9.66714 51.2526 8.71356 50.2754C7.7337 49.3225 6.97796 48.1637 6.50106 46.8829C6.09912 45.8467 5.61606 44.2832 5.487 41.4069C5.34688 38.2984 5.31738 37.3654 5.31738 29.4852C5.31738 21.6051 5.34688 20.6795 5.487 17.5709C5.61975 14.6947 6.09913 13.1312 6.50475 12.0913C7.03944 10.7159 7.68106 9.73131 8.71356 8.69881C9.74606 7.66631 10.7269 7.02838 12.1061 6.49369C13.1459 6.08806 14.7058 5.60869 17.582 5.47594C20.3034 5.35056 21.358 5.31369 26.8561 5.31V5.31738ZM45.2493 10.2144C44.7844 10.2144 44.3241 10.3059 43.8946 10.4838C43.4651 10.6617 43.0749 10.9225 42.7462 11.2512C42.4174 11.5799 42.1567 11.9702 41.9788 12.3997C41.8009 12.8292 41.7093 13.2895 41.7093 13.7544C41.7093 14.2193 41.8009 14.6796 41.9788 15.1091C42.1567 15.5386 42.4174 15.9288 42.7462 16.2575C43.0749 16.5863 43.4651 16.847 43.8946 17.0249C44.3241 17.2028 44.7844 17.2944 45.2493 17.2944C46.1882 17.2944 47.0886 16.9214 47.7525 16.2575C48.4163 15.5937 48.7893 14.6932 48.7893 13.7544C48.7893 12.8155 48.4163 11.9151 47.7525 11.2512C47.0886 10.5873 46.1882 10.2144 45.2493 10.2144ZM29.5037 14.3517C27.4943 14.3204 25.4987 14.6891 23.6331 15.4364C21.7675 16.1837 20.0693 17.2946 18.6372 18.7046C17.2051 20.1145 16.0678 21.7952 15.2915 23.6489C14.5152 25.5026 14.1154 27.4922 14.1154 29.5018C14.1154 31.5115 14.5152 33.5011 15.2915 35.3548C16.0678 37.2085 17.2051 38.8892 18.6372 40.2991C20.0693 41.709 21.7675 42.82 23.6331 43.5673C25.4987 44.3146 27.4943 44.6833 29.5037 44.6519C33.4808 44.5899 37.274 42.9664 40.0646 40.132C42.8552 37.2975 44.4193 33.4794 44.4193 29.5018C44.4193 25.5242 42.8552 21.7061 40.0646 18.8717C37.274 16.0373 33.4808 14.4138 29.5037 14.3517ZM29.5037 19.6654C30.7952 19.6654 32.074 19.9198 33.2672 20.414C34.4604 20.9083 35.5446 21.6327 36.4578 22.5459C37.371 23.4591 38.0954 24.5433 38.5896 25.7365C39.0839 26.9297 39.3382 28.2085 39.3382 29.5C39.3382 30.7915 39.0839 32.0703 38.5896 33.2635C38.0954 34.4567 37.371 35.5409 36.4578 36.4541C35.5446 37.3673 34.4604 38.0917 33.2672 38.5859C32.074 39.0802 30.7952 39.3346 29.5037 39.3346C26.8954 39.3346 24.3939 38.2984 22.5496 36.4541C20.7053 34.6097 19.6691 32.1083 19.6691 29.5C19.6691 26.8917 20.7053 24.3903 22.5496 22.5459C24.3939 20.7016 26.8954 19.6654 29.5037 19.6654Z" fill="black"/>
</g>
<defs>
<clipPath id="clip0_44_272">
<rect width="59" height="59" fill="white"/>
</clipPath>
</defs>
</svg>
