<svg width="35" height="35" viewBox="0 0 35 35" fill="none" xmlns="http://www.w3.org/2000/svg">
<path d="M26.6131 19.5562C25.4669 21.8794 23.9138 24.1938 22.3256 26.2719C20.8175 28.2297 19.2067 30.1063 17.5 31.8937C15.7933 30.1063 14.1825 28.2297 12.6744 26.2719C11.0863 24.1938 9.53313 21.8794 8.38688 19.5562C7.2275 17.2091 6.5625 15.0106 6.5625 13.125C6.5625 10.2242 7.71484 7.4422 9.76602 5.39102C11.8172 3.33984 14.5992 2.1875 17.5 2.1875C20.4008 2.1875 23.1828 3.33984 25.234 5.39102C27.2852 7.4422 28.4375 10.2242 28.4375 13.125C28.4375 15.0106 27.7703 17.2091 26.6131 19.5562ZM17.5 35C17.5 35 30.625 22.5619 30.625 13.125C30.625 9.64403 29.2422 6.30564 26.7808 3.84422C24.3194 1.38281 20.981 0 17.5 0C14.019 0 10.6806 1.38281 8.21922 3.84422C5.75781 6.30564 4.375 9.64403 4.375 13.125C4.375 22.5619 17.5 35 17.5 35Z" fill="white"/>
<path d="M17.5 17.5C16.3397 17.5 15.2269 17.0391 14.4064 16.2186C13.5859 15.3981 13.125 14.2853 13.125 13.125C13.125 11.9647 13.5859 10.8519 14.4064 10.0314C15.2269 9.21094 16.3397 8.75 17.5 8.75C18.6603 8.75 19.7731 9.21094 20.5936 10.0314C21.4141 10.8519 21.875 11.9647 21.875 13.125C21.875 14.2853 21.4141 15.3981 20.5936 16.2186C19.7731 17.0391 18.6603 17.5 17.5 17.5ZM17.5 19.6875C19.2405 19.6875 20.9097 18.9961 22.1404 17.7654C23.3711 16.5347 24.0625 14.8655 24.0625 13.125C24.0625 11.3845 23.3711 9.71532 22.1404 8.48461C20.9097 7.2539 19.2405 6.5625 17.5 6.5625C15.7595 6.5625 14.0903 7.2539 12.8596 8.48461C11.6289 9.71532 10.9375 11.3845 10.9375 13.125C10.9375 14.8655 11.6289 16.5347 12.8596 17.7654C14.0903 18.9961 15.7595 19.6875 17.5 19.6875Z" fill="white"/>
</svg>
