<svg width="66" height="66" viewBox="0 0 66 66" fill="none" xmlns="http://www.w3.org/2000/svg">
<g clip-path="url(#clip0_44_275)">
<path d="M37.125 0H45.2925C45.8865 2.94937 47.52 6.67013 50.3869 10.362C53.1919 13.9796 56.9126 16.5 61.875 16.5V24.75C54.6439 24.75 49.2113 21.3923 45.375 17.2054V45.375C45.375 49.4542 44.1654 53.4419 41.8991 56.8336C39.6328 60.2254 36.4116 62.869 32.6429 64.43C28.8741 65.9911 24.7271 66.3995 20.7263 65.6037C16.7254 64.8079 13.0504 62.8435 10.1659 59.9591C7.28147 57.0746 5.31713 53.3996 4.52131 49.3987C3.72549 45.3979 4.13394 41.2509 5.69499 37.4822C7.25605 33.7134 9.89961 30.4922 13.2914 28.2259C16.6831 25.9596 20.6708 24.75 24.75 24.75V33C22.3025 33 19.9099 33.7258 17.8748 35.0856C15.8398 36.4453 14.2536 38.3781 13.317 40.6393C12.3804 42.9005 12.1353 45.3887 12.6128 47.7892C13.0903 50.1898 14.2689 52.3948 15.9996 54.1254C17.7302 55.8561 19.9353 57.0347 22.3358 57.5122C24.7363 57.9897 27.2245 57.7446 29.4857 56.808C31.747 55.8714 33.6797 54.2852 35.0394 52.2502C36.3992 50.2151 37.125 47.8225 37.125 45.375V0Z" fill="black"/>
</g>
<defs>
<clipPath id="clip0_44_275">
<rect width="66" height="66" fill="white"/>
</clipPath>
</defs>
</svg>
