<svg width="47" height="47" viewBox="0 0 47 47" fill="none" xmlns="http://www.w3.org/2000/svg">
<g clip-path="url(#clip0_44_283)">
<path d="M39.9529 6.83279C37.7986 4.65756 35.2327 2.9331 32.4048 1.76C29.577 0.586904 26.5439 -0.0113412 23.4824 0.000162811C10.6543 0.000162811 0.19975 10.4518 0.188 23.2828C0.188 27.3924 1.26313 31.3903 3.29294 34.93L0 47.0002L12.3492 43.763C15.7641 45.6261 19.5924 46.6009 23.4824 46.5977H23.4941C36.3251 46.5977 46.7768 36.1461 46.7885 23.3034C46.7911 20.2427 46.1882 17.2117 45.0146 14.3849C43.8409 11.5582 42.1226 8.99155 39.9529 6.83279ZM23.4824 42.6556C20.0137 42.6529 16.6093 41.7196 13.6241 39.9531L12.9191 39.5301L5.593 41.4512L7.54937 34.3043L7.09113 33.567C5.15181 30.4836 4.12615 26.9136 4.13306 23.271C4.13306 12.6197 12.8193 3.93054 23.4941 3.93054C26.0372 3.92598 28.5561 4.42484 30.9055 5.39838C33.2549 6.37192 35.3884 7.80087 37.1829 9.60285C38.9833 11.3981 40.4106 13.5319 41.3826 15.8812C42.3546 18.2306 42.8521 20.7491 42.8464 23.2916C42.8346 33.9812 34.1484 42.6556 23.4824 42.6556ZM34.1014 28.162C33.5228 27.8712 30.6646 26.4641 30.127 26.2644C29.5924 26.0734 29.2017 25.9735 28.8198 26.5552C28.4291 27.1339 27.3129 28.4528 26.978 28.8317C26.6431 29.2224 26.2965 29.2665 25.7149 28.9786C25.1362 28.6848 23.2591 28.0739 21.0384 26.0852C19.3053 24.543 18.1449 22.6336 17.7983 22.0549C17.4634 21.4733 17.766 21.1619 18.0568 20.8711C18.3124 20.6126 18.6355 20.1896 18.9263 19.8547C19.2201 19.5198 19.317 19.2731 19.5079 18.8853C19.6989 18.4917 19.6078 18.1568 19.4639 17.866C19.317 17.5752 18.1567 14.7053 17.6661 13.5479C17.1961 12.4052 16.7173 12.5638 16.3589 12.5492C16.0241 12.5286 15.6334 12.5286 15.2427 12.5286C14.9477 12.5361 14.6574 12.6044 14.39 12.7293C14.1226 12.8541 13.8839 13.0328 13.6887 13.2542C13.1541 13.8358 11.6589 15.2428 11.6589 18.1128C11.6589 20.9827 13.7446 23.741 14.0383 24.1317C14.3262 24.5224 18.1332 30.3945 23.9759 32.9207C25.3565 33.5229 26.4434 33.8783 27.2923 34.1486C28.6876 34.5951 29.9478 34.5275 30.9524 34.3836C32.0687 34.2132 34.3923 32.9736 34.8828 31.6135C35.3646 30.2505 35.3646 29.0873 35.2177 28.8435C35.0737 28.5967 34.6831 28.4528 34.1014 28.162Z" fill="white"/>
</g>
<defs>
<clipPath id="clip0_44_283">
<rect width="47" height="47" fill="white"/>
</clipPath>
</defs>
</svg>
